<svg xmlns="http://www.w3.org/2000/svg" viewBox="0 0 61.77 61.77"><defs><style>.cls-1{fill:#e3e3e3;}</style></defs><title>icoinstagram</title><g id="fill-instagram"><path class="cls-1" d="M46 61.77h-30.22a15.8 15.8 0 0 1-15.78-15.77v-30.22a15.8 15.8 0 0 1 15.78-15.78h30.22a15.8 15.8 0 0 1 15.77 15.78v30.22a15.8 15.8 0 0 1-15.77 15.77zm-30.21-56a10 10 0 0 0-10 10v30.23a10 10 0 0 0 10 10h30.21a10 10 0 0 0 10-10v-30.22a10 10 0 0 0-10-10z"/><circle class="cls-1" cx="47.33" cy="13.52" r="2.57"/><path class="cls-1" d="M30.89 46.3a15.42 15.42 0 1 1 15.41-15.41 15.43 15.43 0 0 1-15.41 15.41zm0-25a9.64 9.64 0 1 0 9.64 9.64 9.65 9.65 0 0 0-9.64-9.69z"/></g></svg>