<svg xmlns="http://www.w3.org/2000/svg" xmlns:xlink="http://www.w3.org/1999/xlink" viewBox="0 0 188.7 180.8" enable-background="new 0 0 188.7 180.8"><style type="text/css">.st0{fill:#FFFFFF;} .st1{fill:#899C28;} .st2{fill:#421200;} .st3{fill:#2B3F1C;} .st4{fill:#AFAF4A;} .st5{fill:#141414;} .st6{fill:url(#SVGID_1_);} .st7{fill:#B5B5B5;} .st8{fill:#1E1E1E;} .st9{fill:url(#SVGID_2_);} .st10{fill:url(#SVGID_3_);} .st11{fill:#232323;} .st12{fill:#424242;} .st13{fill:url(#SVGID_4_);} .st14{fill:#2D2D2D;} .st15{fill:url(#SVGID_5_);} .st16{fill:#D1D1D1;} .st17{fill:#454545;} .st18{fill:#ECBCB4;} .st19{fill:#3D5C28;} .st20{fill:#1F150B;} .st21{fill:#483318;} .st22{fill:#231F20;} .st23{fill:#4D4D4F;} .st24{fill:#77562F;} .st25{fill:#543E36;} .st26{fill:#2D4500;} .st27{fill:none;stroke:#1C1C1C;stroke-width:2.1736;stroke-miterlimit:10;} .st28{fill:#43602B;} .st29{opacity:0.18;} .st30{fill:#2E2E2E;} .st31{fill:none;stroke:#545454;stroke-width:0.7894;stroke-miterlimit:10;} .st32{fill:#999999;} .st33{fill:none;stroke:#141414;stroke-width:0.3915;stroke-miterlimit:10;} .st34{fill:#663333;} .st35{fill:#666666;} .st36{fill:none;stroke:#663333;stroke-width:0.1026;stroke-miterlimit:10;} .st37{opacity:0.37;} .st38{fill:none;stroke:#000000;stroke-width:0.3947;stroke-miterlimit:10;} .st39{opacity:0.38;} .st40{fill:none;stroke:#858585;stroke-width:0.3947;stroke-miterlimit:10;} .st41{fill:#333333;} .st42{fill:none;stroke:#B2B2B1;stroke-width:0.1332;stroke-miterlimit:10;} .st43{fill:none;stroke:#000000;stroke-width:0.1092;stroke-miterlimit:10;} .st44{fill:none;stroke:#AAAAAA;stroke-width:0.1092;stroke-miterlimit:10;} .st45{fill:none;stroke:#939393;stroke-width:0.1332;stroke-miterlimit:10;} .st46{fill:url(#SVGID_6_);} .st47{fill:none;stroke:#5C3B2B;stroke-width:0.3604;stroke-miterlimit:10;} .st48{fill:#BF9993;} .st49{fill:#B08D89;} .st50{fill:#C9A29F;} .st51{fill:#A1665E;} .st52{stroke:#6E4633;stroke-width:0.3888;stroke-miterlimit:10;} .st53{fill:#A68182;} .st54{fill:#5C3B2B;} .st55{fill-rule:evenodd;clip-rule:evenodd;fill:#442A1E;} .st56{fill-rule:evenodd;clip-rule:evenodd;fill:none;stroke:#332016;stroke-width:0.3888;stroke-miterlimit:10;} .st57{fill-rule:evenodd;clip-rule:evenodd;fill:none;stroke:#332016;stroke-width:0.206;stroke-miterlimit:10;} .st58{fill-rule:evenodd;clip-rule:evenodd;fill:#CF9E97;} .st59{fill-rule:evenodd;clip-rule:evenodd;fill:#9C7C77;stroke:#AB8780;stroke-width:0.2703;stroke-miterlimit:10;} .st60{fill:#301F16;} .st61{fill:#422525;} .st62{fill:url(#SVGID_7_);} .st63{fill:#FFFFFF;fill-opacity:0.81;} .st64{fill:#FFFFFF;fill-opacity:0.85;} .st65{fill:url(#SVGID_8_);} .st66{fill:url(#SVGID_9_);} .st67{fill:url(#SVGID_10_);} .st68{fill:url(#SVGID_11_);} .st69{fill:url(#SVGID_12_);}</style><path class="st0" d="M82.6 92.6c.5.5 1.4.6 3.3.9 1.9.3 2.8.4 3.3 0 .8-.7.4-2.3 0-3.3-1.1-2.3-4.4-4.2-6.2-3-1.5 1.1-1.7 4.1-.4 5.4z"/><path class="st1" d="M171.2 154.9c-.9 6.2-20 9.3-34.9 11.7-16.6 2.7-20.9.7-37.1 3-20.8 3-23.2 7.6-37.8 10-26.4 4.3-59.3-4.3-61.2-15.8-2.2-12.8 33.6-33.4 68.4-38.6 52.2-7.7 104.2 19 102.6 29.7z"/><ellipse class="st2" cx="72.5" cy="83" rx="9.2" ry="6.7"/><path class="st3" d="M68.5 39.7c-.6-1.1-.9-2.9-.1-4.1 2.5-4 12.8 2.4 21.7-.9 3.8-1.4 8.6-5 12.4-15l4.7 3c-.9 2.4-5 12.4-15.4 17.2-5.6 2.6-10.6 2.5-14.5 2.5-7.2-.1-8.5-2.2-8.8-2.7z"/><path class="st4" d="M101.1 8.4h2c.2.2.6.9.6 1.8s-.4 1.6-.6 1.8l-1.5.2c0-.5 0-1.2-.1-1.9 0-.8-.2-1.4-.4-1.9z"/><path class="st5" d="M103.7 15.3l-3.9-.4c-.2-.5-.9-1.8-.7-3.5.2-1.8 1.1-2.9 1.4-3.3h2.3c.3 0 .5.2.4.5-.1.9-.2 1.9-.1 3.1.1 1.4.3 2.6.6 3.6z"/><linearGradient id="SVGID_1_" gradientUnits="userSpaceOnUse" x1="106.352" y1="21.413" x2="106.352" y2="28.824"><stop offset=".044" stop-color="#414141"/><stop offset=".145" stop-color="#2A2A2A"/><stop offset=".264" stop-color="#181818"/><stop offset=".406" stop-color="#0C0C0C"/><stop offset=".593" stop-color="#040404"/><stop offset="1" stop-color="#020202"/></linearGradient><path class="st6" d="M107 18.3v6.6c0 .2-.1.3-.3.3h-.7c-.2 0-.3-.1-.3-.3v-6.6c0-.2.1-.3.3-.3h.7c.2 0 .3.1.3.3z"/><path class="st7" d="M105.1 14.2v.1c-.2-.1-.4-.2-.6-.2l-1.6-.2c.1-.4.6-.7 1.2-.7.6.2 1 .6 1 1z"/><path class="st8" d="M105.8 16.5v10.3c0 .7-.6 1.3-1.2 1.3h-5.7c-.7 0-1.2-.6-1.2-1.3v-11.700000000000001c0-.7.6-1.3 1.2-1.3h5.7l.6.1c.4.2.6.6.7 1v.1l-.1 1.5z"/><linearGradient id="SVGID_2_" gradientUnits="userSpaceOnUse" x1="110.721" y1="21.318" x2="110.721" y2="30.205"><stop offset=".044" stop-color="#414141"/><stop offset=".145" stop-color="#2A2A2A"/><stop offset=".264" stop-color="#181818"/><stop offset=".406" stop-color="#0C0C0C"/><stop offset=".593" stop-color="#040404"/><stop offset="1" stop-color="#020202"/></linearGradient><path class="st9" d="M115.1 18.1v6.9l-.9.9h-7l-.9-.9v-6.9l.9-.9h7l.9.9z"/><linearGradient id="SVGID_3_" gradientUnits="userSpaceOnUse" x1="105.838" y1="15.766" x2="106.579" y2="15.766"><stop offset="0" stop-color="#E6CB00"/><stop offset=".438" stop-color="#E4C900"/><stop offset=".615" stop-color="#DDC302"/><stop offset=".744" stop-color="#D1B805"/><stop offset=".85" stop-color="#BFA908"/><stop offset=".942" stop-color="#A9960D"/><stop offset="1" stop-color="#968511"/><stop offset="1" stop-color="#948311"/><stop offset="1" stop-color="#8D7D10"/><stop offset="1" stop-color="#82730F"/><stop offset="1" stop-color="#71640D"/><stop offset="1" stop-color="#5B500B"/><stop offset="1" stop-color="#3F3808"/><stop offset="1" stop-color="#201D05"/><stop offset="1" stop-color="#020202"/></linearGradient><path class="st10" d="M106.6 15.8c0 .4-.3.7-.7.7v-1.5c.3 0 .7.4.7.8z"/><path class="st11" d="M97.7 15.2v3.2l-.8.4c-.2.1-.4 0-.4-.2v-3.6c0-.2.2-.3.4-.2l.8.4z"/><path class="st5" d="M120.5 26.7c-.2.1-5.2-.4-6.1-.9-.4-.9-.7-1.7-.8-2.3-.2-.7-.3-1.3-.3-2s.1-1.3.3-2c.1-.6.4-1.4.8-2.3.9-.4 5.9-1 6.1-.9s1.4.9.3 1.6c-.6.3-2 .3-1 1 .6.4.9 1.5.9 2.6 0 1-.4 2.1-.9 2.6-1 .7.5.7 1 1 1.1.7-.1 1.4-.3 1.6z"/><path class="st12" d="M118.9 24.2c.2-.1.6.4.9.5.1 0 .2.1.2.1.1 0 .1 0 .2.1l.3.1c.1 0 .2.1.2.1.2.1.4.3.4.6.1.5-.4 1-.8 1h-.7c-.4 0-.5-.1-.6-.1-.4-.3-.4-2.3-.1-2.4z"/><linearGradient id="SVGID_4_" gradientUnits="userSpaceOnUse" x1="116.72" y1="14.382" x2="116.571" y2="24.805"><stop offset="0" stop-color="#808080"/><stop offset=".129" stop-color="#686868"/><stop offset=".404" stop-color="#3C3C3C"/><stop offset=".651" stop-color="#1C1C1C"/><stop offset=".858" stop-color="#090909"/><stop offset="1" stop-color="#020202"/></linearGradient><path class="st13" d="M119.9 26.6c-.2.1-5.2-.4-6.1-.8-.4-.9-.7-1.7-.8-2.3-.2-.7-.3-1.3-.3-2s.1-1.3.3-2c.1-.6.4-1.4.8-2.3.9-.4 5.9-1.1 6.1-.9s1.4.9.3 1.6c-.6.3-2 .3-1 1 .6.4.9 1.5.9 2.5s-.3 2.1-.9 2.6c-1 .7.5.7 1 1 1 .7-.1 1.5-.3 1.6z"/><path class="st14" d="M97.7 15.2v3.2-3.2z"/><linearGradient id="SVGID_5_" gradientUnits="userSpaceOnUse" x1="111.403" y1="18.401" x2="111.403" y2="25.774"><stop offset="0" stop-color="#E6CB00"/><stop offset=".334" stop-color="#968511"/><stop offset=".46" stop-color="#938211"/><stop offset=".569" stop-color="#887910"/><stop offset=".671" stop-color="#76690E"/><stop offset=".77" stop-color="#5D530B"/><stop offset=".867" stop-color="#3D3608"/><stop offset=".96" stop-color="#151304"/><stop offset="1" stop-color="#020202"/></linearGradient><path class="st15" d="M110.9 17.2h1.1v8.7h-1.1z"/><path class="st16" d="M107.9 19.4h-.1l-.5-.5v-1.7h1.1v1.8c-.2.1-.3.2-.5.4z"/><path class="st17" d="M100.3 13.8h3v14.2h-3z"/><path class="st18" d="M110.1 25.9c-1.4 0-1.7-.4-1.8-.5-.1-.2-.2-.5-.4-1.1-.1-.4-.2-.8-.2-1.2 0-.3-.1-.6-.1-1 0-.6-.8-.8-1.1-.4-.2.4-.3.9-.4 2.5v1.4c0 .6.1 1.4.3 2.3.2.6.2.5.3 1 .3 1.1-.1 1.5.1 2 .4.9 3.2 1.2 3.8.2.2-.4.1-.8.5-1.7.1-.2.1-.2.3-.5.4-.8.3-.8.5-1.2.4-.7.9-.7 1.2-1.5.1-.3.1-.3.1-.4-.2-.4-1.3.1-3.1.1z"/><path class="st19" d="M69.3 43.2c-.7-1.2-1.2-3.4-.3-4.8 2.6-4.1 14.1 4.2 25.2.9 5.8-1.7 9.7-5.9 12.1-9.1.1-.2.4-.2.6-.1.4.4 1.2.9 2.1 1.1.6.1 1.1.2 1.6.2.3 0 .5.3.4.6-1.7 3.2-6.2 10.5-14.9 13.7-3.8 1.4-8.1 1.1-16.9.7-5.5-.3-8.6-.8-9.9-3.2z"/><path class="st20" d="M47.6 139.3l-5.1-5.4 4.7-3.5 5.1 5.4zM91.4 149.2l-7.6-2.1 1.7-5.6 7.6 2.1z"/><path class="st2" d="M93.4 145.5c-2.9-.9-5.8-1.2-8.7-1.9-.4-.1-.7-.5-.6-.9 7-27.7 7-31.7-10.9-53.1-.3-.3-.2-.7.1-1 2.4-2.1 5-3.9 7.3-6 .3-.3.9-.3 1.1.1 19 23.7 19.1 32.2 12.6 62.3 0 .4-.5.6-.9.5zM50.8 136.8c-1.3-.7-5.1-2.8-5.4-5.6 0-.4-.1-.8 0-.9 12.9-11.8 17.2-26.9 18.8-44.3 0-.4.5-.7 1-.6 2.9.8 5.8 2 8.7 2.7l.6.8c3.2 5.5-15.3 50.6-22.5 48.6l-1.2-.7z"/><path class="st21" d="M103.9 160.5l-21.6-5.3c-.8-.2-1.2-1.1-1-2.1l24 5.9.2.1-.2.3c-.1.1-.2.3-.4.5-.3.3-.8.5-1 .6z"/><path class="st22" d="M82.8 148.7c0-.1 0-.1.1-.2.2-.8.3-1.6.4-2.4.1-.6.4-1.1.8-1.2.2-.1.5-.1.7 0 .2 0 .3.1.4.2.7.5 1.5 1 2.4 1.1 1.8.3 2.5-.5 4.1-.4.4 0 .7.1 1 .2.9.4 1.2 1.5 1.3 1.9l-11.2.8z"/><path class="st23" d="M94.1 147.9c-1-1-1.5-1.4-2.5-1.5-1.6-.1-2.4.8-4.1.5-.9-.2-1.7-.6-2.4-1.2-.3-.3-.8-.3-1.1-.2-.2.1-.4.2-.5.4l-.1.1c-.1 1-.3 2.1-.6 3.2l-.3 1c-.1.4-.2.8-.4 1.1-.2.6-.4 1.1-.6 1.6-.1.3 0 .6.1.8.2.4.7.5.7.5 3.3.7 6.6 1.5 9.9 2.3 4.1 1 8 2 11.9 3.1.4.1.9 0 1.2-.3.1-.1.1-.1.1-.2l.1-.1.4-.7c.3-.7.5-1.6.2-2.2-.6-1.2-2.2-1-4.6-2.2-.6-.3-1.2-.8-2.1-1.5-.3-.2-.6-.5-1-.8l-.1-.1c-1-.8-1.7-1.5-2.4-2.1l-.8-.8-.3-.2-.7-.5z"/><path class="st22" d="M94.6 148.4l.3.3c.3.2.5.5.8.8.2.3.4.5.6.6l.1.1c.2.2.4.3.5.4.4.4.8.7 1.3 1 .4.3.7.6 1 .8.1.7-.8 1.7-2 1.9-1 .2-1.8-.4-2-.5-.8-.7-1.5-1.3-1.9-1.8-1-1.1-1.2-1.6-1.3-2-.1-.3-.3-1.1.2-1.6.2-.3.6-.5.8-.6.2-.1.3-.1.4-.1.1 0 .4-.1.7 0l.5.7z"/><path class="st24" d="M96.5 150.3c-.1 1.1-.3 2.3-.5 3.4 0 .2-.2.2-.3.2-.1 0-.3-.1-.3-.3l.5-3.4c0-.2.1-.2.2-.2l.4.3zM96.4 150.2c0 .1-.2.3-.3.3-1.3 0-2.4-.2-3.6-.5-.2 0-.2-.1-.2-.3 0-.1.1-.2.3-.2 1.2.2 2.4.4 3.6.5l.2.2zM94.6 148.4h-.2c-.1 0-.1.1-.1.2l-.2 1.1-.1.6c-.1.5-.2.9-.2 1.4v.2c0 .1 0 .1.1.1h.1c.1 0 .3 0 .3-.2v-.3c.1-.4.1-.8.2-1.1l.1-.6.2-1.1-.2-.3zM93.8 151.7c0-.1.1-.3.3-.2l3.8.3c.2 0 .2.2.2.3 0 .1-.1.3-.3.2-1.2-.2-2.6-.2-3.8-.3-.2 0-.2-.2-.2-.3z"/><path class="st25" d="M105.8 158.5c-.1.3-.2.5-.4.7 0 0 0 .1-.1.1 0 0-.1 0-.1-.1l-.6-.5c-2.5-1.8-4.6-2.4-6.2-2.6-3.2-.4-4.8-.3-4.8-.3h-.5c-.9 0-1.8 0-2.9-.1 0 0-.8-.1-1.6-.3-1-.3-2.1-.8-3.1-1.4-1.6-1-3-2.2-3.5-2.6l.4-1.1c1.1 1.1 2.2 1.9 3.1 2.5 1.6 1 2.9 1.4 3.5 1.6 1.9.5 3.3.5 4.9.4 1.1 0 2.2-.1 3.5.1l1.4.2c2.5.6 6 2.8 7 3.4z"/><path class="st21" d="M49.5 154.7l-13.2-15.9c-.5-.6-.2-1.5.6-2l14.6 17.7.1.2-.3.1c-.2.1-.4.1-.6.1-.5 0-.9-.1-1.2-.2z"/><path class="st22" d="M41 134.5l.2-.1c.7-.5 1.3-1 1.9-1.5.4-.4 1-.5 1.4-.4.2.1.4.2.5.4.1.1.2.3.2.4.2.7.5 1.5 1.1 2.2 1.1 1.2 2.3 1 3.5 2 .3.2.5.4.7.7.4.8 0 1.7-.2 2.1l-9.3-5.8z"/><path class="st23" d="M50.2 140.2c-.1-1.3-.2-1.9-1-2.4-1.2-1-2.4-.7-3.5-2-.6-.7-.9-1.4-1.1-2.2-.1-.4-.4-.7-.7-.8-.2-.1-.5-.1-.7 0h-.2c-.8.6-1.6 1.3-2.6 2-.3.2-.6.4-.9.5l-1 .6-1.5.8c-.2.2-.4.4-.4.7-.1.4.2.7.2.8l6.1 7.2c2.5 3 4.9 5.9 7.2 8.9.3.3.7.5 1.1.4h.30000000000000004l.8-.3c.7-.3 1.4-.8 1.6-1.5.3-1.2-1-1.9-2.1-4.2-.3-.6-.4-1.2-.7-2.3-.1-.3-.2-.7-.2-1.2v-.1c-.2-1.1-.4-2-.5-2.8-.1-.4-.1-.7-.1-1v-.3l-.1-.8z"/><path class="st22" d="M50.3 140.8v.3l.1 1c0 .3 0 .6.1.8v.1l.1.6c.1.5.2.9.3 1.5.1.4.2.8.2 1.2-.4.5-1.8.8-2.8.3-.9-.4-1.1-1.2-1.2-1.5-.2-1-.3-1.8-.3-2.4-.1-1.4.1-1.8.3-2.1.2-.3.5-.9 1.2-1.1.4-.1.8 0 1 .1.2.1.3.1.3.1.1.1.4.2.5.4l.2.7z"/><path class="st24" d="M50.5 143.2c-.9.7-1.8 1.5-2.6 2.2-.1.1-.3.1-.4 0-.1-.1-.1-.2 0-.3.9-.7 1.8-1.5 2.6-2.2.1-.1.2-.1.3 0l.1.3zM50.5 143.2c-.1.1-.4.1-.4 0-1-.7-1.7-1.5-2.5-2.4-.1-.1-.1-.2 0-.3.1-.1.3-.1.4 0 .8.8 1.6 1.6 2.5 2.4v.3zM50.3 140.9l-.1-.1c-.1 0-.1 0-.2.1l-.9.7c-.2.1-.3.2-.5.4-.4.3-.7.6-1.1.8h-.1v.30000000000000004c.1.1.2.1.3 0l.2-.2.9-.7c.2-.1.3-.2.5-.4l.9-.7.1-.2zM47.5 142.8c.1-.1.2-.1.4 0 .9.8 1.9 1.6 2.7 2.4.1.1.1.3 0 .3-.1.1-.3.1-.4 0l-2.7-2.4c-.2-.1-.1-.3 0-.3z"/><path class="st25" d="M52.3 154.3l-.8.3h-.1v-.1l-.2-.7c-.8-2.7-2-4.3-3.1-5.3-2.2-2.1-3.5-2.9-3.5-2.9l-.4-.3c-.7-.5-1.4-1-2.1-1.7 0 0-.6-.5-1-1.1-.6-.8-1.1-1.8-1.5-2.8-.6-1.6-.9-3.2-1-3.9l1-.6c.1 1.4.4 2.6.7 3.5.6 1.6 1.3 2.6 1.7 3.1 1.1 1.4 2.3 2.2 3.5 3 .9.6 1.8 1.2 2.7 2 0 0 .5.4.9 1 1.6 2 2.8 5.5 3.2 6.5z"/><image width="92" height="76" xlink:href="201AAEDF.png" transform="translate(26.712 45)" overflow="visible"/><path class="st26" d="M83.7 46.3c.4 6.1-1.7 9.1-2.9 14.5-1.1 4.8-1.8 11.9 1 21.4.1.5-.2.9-.6 1-2.7.4-4.8.4-6.2.3-3.1-.2-4.5-1-7.4-1-2 0-3.7.4-4.9.8-.4.1-.9-.2-1-.6-1.3-7.3-2.6-16.9-2.4-27 0 0 .1-6.6 2.6-14.7 1.6-5.2 2.9-6.8 4.5-7.9 3.2-2 8-2 11.3-.2 5.4 3 5.8 9.9 6 13.4z"/><path class="st27" d="M62.5 69.5c.4-.5 1.1-1.3 1.8-2.3 4.7-6.2 5.1-9.9 7.7-14.3 4.8-8.3 11.6-9.1 10.9-12.4-.6-2.6-5.1-3.7-7.5-3.9-4.3-.4-7.5 1.9-9.2 3.1-2.3 1.7-4.1 4.5-7.7 10.3-2.7 4.4-4.3 7.8-5.5 10.8-.4 1-.7 1.8-.9 2.3"/><path class="st28" d="M68.8 45c-1-1.7-.7-4.6.8-6.2 4.7-5.1 15.7 3.2 25 .5 5.8-1.7 9.7-5.8 12.1-8.9.1-.2.4-.2.6-.1.4.4 1.1.8 2.1 1 .6.1 1.1.2 1.5.1.3 0 .5.3.4.5-5.4 9.8-14.9 13.3-14.9 13.3-4.7 1.8-8.5 1.9-16.2 2-9.2.4-10.8-1.1-11.4-2.2z"/><image width="76" height="78" xlink:href="201AAEDD.png" transform="translate(19.712 38)" overflow="visible"/><path class="st29" d="M46.5 59.8c-.2.2-.5.4-.7.7-2.3 3-.1 10.6 4.9 13.8 5.1 3.4 13.2 2.1 14.6-1.1.2-.3.2-.7.2-1-6.3-4.1-12.6-8.2-19-12.4z"/><path class="st30" d="M52.5 92.9c-4.8-3.2-4.6-3.5-9.5-6.7s-5-2.9-9.9-6c-.2-.1 0-.5-.1-.7 0-.2-.3-.5-.2-.7 3.1-4.9 3.4-4.7 6.6-9.6l5.9-10c.2-.3.7-.1 1 0 .3.1.8.2.8.6-.1 2.2-.1 4.4.8 6.3.9 1.9 2.5 3.4 4.3 4.7 1.9 1.4 4 2.5 6.3 2.6 2.3.1 4.5-.7 6.6-1.8.4-.2.7.2.9.4.2.2.6.6.4.9-3.1 4.9-3.4 4.7-6.6 9.6l-5.9 10c-.1.2-.5 0-.7.1-.3.1-.5.4-.7.3z"/><path class="st31" d="M52.5 92.9c-4.8-3.2-4.6-3.5-9.5-6.7s-5-2.9-9.9-6c-.2-.1 0-.5-.1-.7 0-.2-.3-.5-.2-.7 3.1-4.9 3.4-4.7 6.6-9.6l5.9-10c.2-.3.7-.1 1 0 .3.1.8.2.8.6-.1 2.2-.1 4.4.8 6.3.9 1.9 2.5 3.4 4.3 4.7 1.9 1.4 4 2.5 6.3 2.6 2.3.1 4.5-.7 6.6-1.8.4-.2.7.2.9.4.2.2.6.6.4.9-3.1 4.9-3.4 4.7-6.6 9.6l-5.9 10c-.1.2-.5 0-.7.1-.3.1-.5.4-.7.3z"/><path class="st32" d="M46.8 59.4h-.4v.6c-1.3 1.7-1.5 4.7-.4 7.6.9 2.4 2.8 4.6 5 6 2.2 1.5 5 2.4 7.5 2.3 3.3-.2 6-1.7 6.8-3.5.1-.2.5-.2.5-.4l-.2-.4-9.2-6.5c-3.1-1.9-6.5-3.7-9.6-5.7z"/><path class="st33" d="M46.8 59.4h-.4v.6c-1.3 1.7-1.5 4.7-.4 7.6.9 2.4 2.8 4.6 5 6 2.2 1.5 5 2.4 7.5 2.3 3.3-.2 6-1.7 6.8-3.5.1-.2.5-.2.5-.4l-.2-.4-9.2-6.5c-3.1-1.9-6.5-3.7-9.6-5.7z"/><path class="st34" d="M57.6 78c-.2 0-.4-.1-.7-.3-.2-.2-.4-.3-.5-.5l-.6 1v.2l.9.6h.2l.7-1zM59.3 75.1l-.9-.6h-.2l-.6 1 .3.1s.2.1.3.2c.1.1.3.2.6.4l.6-1s0-.1-.1-.1z"/><path class="st35" d="M57.8 78.2l-1.5-1.1.5-.9.6-.8 1.6 1zM56.3 77c.1.1.3.4.7.7.4.3.8.3.9.3v.1c-.1 0-.5-.1-.9-.3-.4-.3-.6-.6-.7-.8zM58.9 76.5c-.1-.1-.3-.4-.7-.7-.4-.3-.8-.3-.9-.3v-.1c.1 0 .5.1.9.3.5.3.7.6.7.8z"/><path d="M56.9 78.8l-.9-.5.3-.4.8.6zM59 75.6l-.9-.6.2-.3.9.5z"/><path class="st36" d="M56.8 76.2l1.6 1.1"/><image width="76" height="78" xlink:href="201AAEE3.png" transform="translate(7.712 30)" overflow="visible"/><path class="st34" d="M45.6 70.2c-.2 0-.4-.1-.7-.3-.2-.2-.4-.3-.5-.5l-.6 1v.2l.9.6h.2l.7-1zM47.3 67.2l-.9-.6h-.2l-.6 1 .3.1s.2.1.3.2c.1.1.3.2.6.4l.6-1s0-.1-.1-.1z"/><path class="st35" d="M45.8 70.3l-1.6-1.1.6-.9.6-.8 1.6 1zM44.3 69.1c.1.1.3.4.7.7.4.3.8.3.9.3v.1c-.1 0-.5-.1-.9-.3-.5-.2-.7-.6-.7-.8zM46.9 68.6c-.1-.1-.3-.4-.7-.7-.4-.3-.8-.3-.9-.3v-.1c.1 0 .5.1.9.3.5.3.7.6.7.8z"/><path d="M44.9 70.9l-.9-.5.2-.4.9.6zM47 67.7l-.9-.6.2-.3.9.5z"/><path class="st36" d="M44.8 68.3l1.6 1.1"/><path class="st38" d="M42.5 72l.1.1.2.1.1.1.2.1.1.1.1.1.1.1h.2l.1.1.2.1.1.1.1.1.1.1.2.1.1.1h.2l.1.1.1.1.2.1.1.1.1.1.2.1.1.1h.1l.1.1.2.1.1.1.2.1.1.1.1.1.1.1h.2l.1.1.1.1.2.1.1.1.1.1h.2l.1.2h.1l.1.1.2.1.1.1.2.1.1.1h.1l.1.1.2.1.1.1.2.1.1.1.1.1.1.1h.2l.1.1.2.1.1.1.1.1.1.1.2.1.1.1h.2l.1.2h.1l.2.1.1.1.1.1.2.1.1.1.2.1.1.1h.1l.1.1.2.1.1.1.2.1.1.1.2.1.1.1h.1l.1.2h.2l.1.1.2.1.1.1.1.1.2.1.1.1.1.1h.2l.1.2h.2l.1.1.1.1.2.1.1.1.1.1.2.1.1.1.2.1.1.1M42.8 71.8l.1.1.1.1.2.1h.1l.1.1.2.1.1.1.1.1.2.1.1.1.1.1h.2l.1.2h.1l.2.1.1.1.1.1.2.1.1.1h.1l.2.2h.1l.1.1.2.1.1.1.1.1.2.1h.1l.1.1.2.1.1.1.1.1.1.1.2.1.1.1h.2l.1.1.1.1.1.1.2.1.1.1h.1l.2.2h.1l.1.1.2.1.1.1.1.1.1.1h.2l.1.1.2.1.1.1.1.1.1.1.2.1.1.1h.2l.1.2h.1l.2.1.1.1.1.1.2.1.1.1.2.1.1.1h.1l.2.1.1.1.1.1.2.1.1.1.1.1.2.1h.1l.1.2h.2l.1.1.2.1.1.1.1.1.2.1.1.1.1.1h.2l.1.2h.2l.1.1.1.1.2.1.1.1.1.1.2.1.1.1h.2l.1.2h.2l.1.1.1.1.2.1"/><path class="st40" d="M42.6 71.9l13.6 9"/><path class="st41" d="M42.2 72.9l-.2-.4-.2-.3c.1-.1.3-.2.5-.3l.4-.1c.1 0 .2 0 .2.1v.3c-.1.1-.2.2-.3.4-.1.2-.3.3-.4.3z"/><path class="st42" d="M42.3 73c-.4.2-1 .3-1.1.1-.1-.2.3-.6.7-.9.4-.2 1-.3 1.1-.1.1.2-.3.7-.7.9z"/><ellipse transform="matrix(.873 -.487 .487 .873 -30.517 29.283)" class="st43" cx="41" cy="73.3" rx=".2" ry=".3"/><ellipse transform="matrix(.873 -.487 .487 .873 -30.458 29.273)" class="st44" cx="41" cy="73.1" rx=".2" ry=".3"/><path class="st45" d="M42.3 72.9c-.4.2-1 .3-1.1.1-.1-.2.3-.6.7-.9.4-.2 1-.3 1.1-.1.1.2-.3.6-.7.9z"/><linearGradient id="SVGID_6_" gradientUnits="userSpaceOnUse" x1="72.772" y1="31.754" x2="72.772" y2="27.193"><stop offset="0" stop-color="#ECBCB4"/><stop offset=".347" stop-color="#DBA198"/><stop offset=".76" stop-color="#CA867C"/><stop offset="1" stop-color="#C47C71"/></linearGradient><path class="st46" d="M77.2 31.8c.2 1 .5 1.8.7 2.2-.1 0-.1 0-.2.1-.3.1-.6.2-1 .3-1.3.5-2.7.6-3.7.6-.7 0-1.6-.1-2.6-.3-.8-.2-1.6-.4-2.2-.7-.2-.4-.3-1-.5-1.7v-.1c-.1-.4-.1-.9-.1-1.5v-.1c0-1.6.3-2.8.6-3.6h9.8c-.3.6-.8 1.8-.9 3.4 0 .4 0 .9.1 1.3v.1z"/><path class="st47" d="M77.4 32.4c.3-.1 1.1.5 1.1.9 0 1-2.4 1.8-5.4 1.8-3.1 0-5.6-.8-5.6-1.8 0-.2.1-.6.3-.6"/><path class="st18" d="M63.9 12.8c1.4-4.7 6.8-9.6 12-8.2 4.9 1.3 6.8 7.6 6.8 11.5.1 6.4-4.5 13.7-9.6 13.7-3.9-.1-6.7-4.3-7.7-6-.1-.1-.2-.3-.3-.6-1.5-2.9-2.2-7-1.2-10.4z"/><path class="st48" d="M71.1 16.5h-.5c-.9-.2-1.8-1-1.6-1.8.1-.8 1.1-1.2 2-1.2h.2c.6 0 1.3.4 1.6.9.3.3.4.7.3 1-.2.6-1.2 1.1-2 1.1z"/><path class="st49" d="M71 13.5h.1c.6 0 1.2.4 1.6.9.2.3.3.6.3.9-.1.7-1.1 1.2-1.9 1.2h-.4c-.8-.2-1.7-1-1.6-1.8.1-.7 1-1.2 1.9-1.2m0-.1c-.8 0-1.9.5-2 1.3-.1.9.8 1.7 1.7 1.9h.5c.9 0 1.9-.5 2-1.3.2-.9-.9-1.9-2-1.9h-.2z"/><path class="st48" d="M71 17.4c-.2 0-.4 0-.6-.1-.8-.2-1.7-.9-1.6-1.6.1-.6.9-1 1.7-1 .2 0 .4 0 .6.1.8.2 1.7.9 1.6 1.6-.1.6-.9 1-1.7 1z"/><path class="st50" d="M70.5 14.7l.6.2c.8.2 1.6.9 1.5 1.5-.1.6-.9.9-1.7.9-.2 0-.4 0-.6-.1-.8-.2-1.6-.9-1.5-1.5.2-.6 1-.9 1.7-1m0 0c-.8 0-1.7.4-1.8 1-.1.7.8 1.4 1.6 1.6l.6.1c.8 0 1.7-.4 1.8-1 .1-.7-.8-1.4-1.6-1.6-.2-.1-.4-.1-.6-.1z"/><path class="st51" d="M74.9 17.5c1.5.2 3 2.2 2.5 3.4-.3.7-1.3 1-2.1.8-1.6-.4-2.4-3-1.7-3.9.3-.5 1.1-.4 1.3-.3z"/><path class="st0" d="M73.1 15.8c-.1.8-1.4 1.2-2.4.9-.9-.2-1.8-1-1.7-1.6.1-.8 1.4-1.1 2.4-.9.8.2 1.7.9 1.7 1.6z"/><path class="st52" d="M72.1 15.5c-.1.4-.4.8-.8.8s-.7-.4-.6-.8c.1-.4.4-.8.8-.8s.6.4.6.8z"/><path class="st0" d="M75.1 25.6h-.3c-1.9-.2-3.3-1.6-3.9-2.4-.2-.3-.3-.6-.3-.7.1 0 .3.1.6.2.7.3 2 .9 3.7 1.1h.8c1.4 0 2.5-.3 3.2-.5.3-.1.5-.2.6-.2 0 .1-.1.2-.3.5-.6.8-2.2 2-4.1 2z"/><path class="st53" d="M70.8 22.8l.3.1c.8.4 2 .9 3.8 1.1h.8c1.4 0 2.5-.3 3.2-.5l.3-.1c-.5.6-2.1 2-4.1 2h-.3c-2-.1-3.6-1.8-4-2.6m-.3-.4h-.1c-.3.4 1.7 3.1 4.4 3.3h.4c2.6 0 4.7-2.2 4.5-2.6l-.1-.1c-.4 0-1.8.7-3.8.7h-.8c-2.6-.2-4.1-1.3-4.5-1.3z"/><path class="st54" d="M73.6 14.8c-.1 0-.3-.1-.3-.2-.5-.8-1.1-1.3-1.9-1.5-1.4-.3-2.8.7-2.8.7-.2.2-.4.2-.6 0-.1-.2-.1-.4.1-.5.1-.1 1.7-1.2 3.4-.9 1 .2 1.8.8 2.4 1.8.1.2.1.4-.1.5 0 .1-.1.1-.2.1zM81.1 15c-.1 0-.2 0-.3-.1 0 0-1.2-1.2-2.7-1.2-.8 0-1.5.4-2.1 1.1-.1.2-.4.2-.5 0-.2-.1-.2-.4 0-.6.8-.9 1.7-1.4 2.7-1.4 1.8 0 3.2 1.4 3.2 1.4.1.2.1.4 0 .6-.1.2-.2.2-.3.2z"/><path class="st48" d="M78.4 17.2c-.6 0-1.3-.3-1.7-.7-.3-.3-.4-.6-.4-.9 0-.8 1-1.5 1.9-1.5h.1c.6 0 1.3.3 1.7.7.3.3.4.6.4.9 0 .8-1 1.5-1.9 1.5h-.1z"/><path class="st49" d="M78.3 14.1c.6 0 1.2.3 1.6.7.3.3.4.6.4.9 0 .8-1 1.4-1.8 1.5h-.1c-.6 0-1.2-.3-1.6-.7-.3-.3-.4-.6-.4-.9 0-.8 1-1.4 1.8-1.5h.1m0-.1h-.1c-.9.1-1.9.8-1.9 1.6 0 .9 1.1 1.7 2.1 1.7h.1c.9-.1 1.9-.8 1.9-1.6.1-1-1-1.7-2.1-1.7z"/><path class="st48" d="M78.4 17.9c-.6 0-1.3-.3-1.7-.6-.2-.2-.3-.4-.3-.6 0-.6 1-1.2 1.8-1.2h.2c.6 0 1.3.3 1.7.6.2.2.3.4.3.6 0 .6-1 1.2-1.8 1.2h-.2z"/><path class="st50" d="M78.5 15.5c.6 0 1.3.2 1.6.6.2.2.3.4.3.6 0 .6-.9 1.1-1.8 1.2h-.2c-.6 0-1.3-.2-1.6-.6-.2-.2-.3-.4-.3-.6 0-.6 1-1.1 1.8-1.2h.2m0-.1h-.2c-.9.1-1.8.6-1.9 1.3 0 .7 1 1.3 2 1.3h.2c.9-.1 1.8-.6 1.9-1.3 0-.8-1.1-1.3-2-1.3z"/><path class="st0" d="M76.2 16.1c0 .8 1.2 1.4 2.3 1.3.9-.1 1.9-.6 2-1.3 0-.8-1.2-1.4-2.3-1.3-.9 0-1.9.6-2 1.3z"/><path class="st55" d="M64.1 20.7c-.3.2-1.2-.5-1.3-.6-3.1-2.5-2.6-12.7.2-13.6.4-.1 1.6-.4 2.8-.8.3-.1.7-.3 1.1-.6 1.4-1.1 1.1-1.8 2.4-2.7.5-.3 1.2-.7 4.7-1.1 2.5-.3 3 .3 4.6-.3 1.2-.6 1.4-1.1 2.2-1 1.6.2 2.5 2.7 2.6 3 .8 2.5.1 5.8-1.7 6.5-.6.2-.8 0-2.7-.4-3.3-.8-5-1.2-6.3-.9-1.7.4-2.5 1.5-4.1 1.3-.2 0-.8-.1-1.1.2-.4.5-.3 1.3-.3 1.7.2 1.5.4 5.3-.8 6-.6.3-1.5.1-1.8-.4-.4-.6-.1-1.7-.4-1.8 0 0-.1 0-.4.1-.2.1-.5.2-.5.2-.4.2-.4 1.4.1 3.1.6 1.3 1 2 .7 2.1z"/><path class="st56" d="M77 1.7c-2.1.2-3.4.9-4.3 1.5-1.2.8-1.2 1.4-2.5 2.2-1.8 1.2-2.4.6-3.7 1.7-1.4 1.1-1.8 2.7-2 3.4-.4 1.4-1.4 3.9-1.3 4.6M77.3 2.6c-2.1.2-3.4.9-4.3 1.5-1.2.8-1.2 1.4-2.5 2.2-1.8 1.2-2.4.6-3.7 1.7-1.4 1.1-1.8 2.7-2 3.4-.4 1.4-.6 4.5-.5 5.2M78.5 3c-2.1.2-3.4.9-4.3 1.5-1.2.8-1.2 1.4-2.5 2.2-1.8 1.2-2.4.6-3.7 1.7-1.4 1.1-1.8 2.7-2 3.4-.4 1.4.1 4.9.2 5.5"/><path class="st57" d="M81.5 2c-1.1 0-1.9.2-2.3.6-.5.5-.2.9-1.4 1.1-1.1.1-.9.6-1.6 1.1-.8.5-1.3 1-1.4 1.3-.3.7-3.4 2.1-3.3 2.5M75.2 7.8c0-.3 2.1-1.4 2.9-2.2l.3-.4c.1-.3.4-1.2 1.2-1.7.7-.5 1-.2 2-.7.7-.4.7-.6 1.2-.9M76.4 8.2c0-.3 1.7-1.2 2.7-2 .3-.2.5-.4.6-.6.1-.3.4-1.2 1.2-1.7.7-.5 1-.2 2-.7.1-.2.2-.2.3-.3M78.2 8.7c0-.2 1-.8 2-1.5.6-.4 1.1-.8 1.2-1.1.1-.3.4-1.2 1.2-1.7.4-.3.7-.3 1-.4M79.9 9.1c0-.1.4-.4 1-.8.9-.6 2.1-1.3 2.2-1.8.1-.2.1-.7.4-1.1"/><path class="st56" d="M75.2 1.5c-2.1.2-3.4.9-4.2 1.5-1.2.8-1.2 1.4-2.5 2.2-1.8 1.2-2.4.6-3.7 1.7-1.4 1.1-1.8 2.7-2 3.4-.4 1.4-1.2 7.3-1 8"/><path class="st58" d="M62.6 16.9c.1 1.6 1.3 3.3 2.4 3 .3-.1.7-.3.8-.7.2-.7-.6-1.2-.9-2.6-.2-1.3.2-2-.2-2.3-.4-.3-1.2.1-1.7.7-.5.8-.5 1.7-.4 1.9z"/><path class="st59" d="M63.5 17.8c.1.4.5.8.7.7.2-.1.3-.7.2-1-.1-.3-.3-.8-.5-.8s-.4.3-.4.4c-.1.3 0 .6 0 .7z"/><path class="st60" d="M76.4 4.2c.4-1.4 1.3-2.6 2.6-3.3.6-.3 1.3-.5 2.1-.5.4 0 .7 0 1.1.2.4.1.7.3 1 .6.6.5.8 1.3.8 2s-.4 1.6-1.1 1.9c-.3.2-.8.3-1.2.2-.5-.1-.8-.6-.8-1-.1-.4.2-1 .7-1.1h.4c.2.1.3.2.3.3 0 .2.1.3 0 .4-.1.1-.3.2-.4 0 .1-.1 0-.2 0-.2h-.1c-.1 0-.2.2-.2.4s.2.3.3.4c.2 0 .5 0 .6-.1.9-.5.8-2 0-2.6-.4-.3-.9-.4-1.4-.4-.5 0-1.1.2-1.5.5-.9.6-1.6 1.6-1.8 2.6-.1.4-.4.6-.8.5-.5 0-.7-.4-.6-.8z"/><path class="st52" d="M79.5 16.1c-.1.4-.4.8-.8.8s-.7-.4-.6-.8c.1-.4.4-.8.8-.8.3 0 .6.4.6.8z"/><path class="st61" d="M133.6 152.7c-.2-.3.4-.6.3-1.5-.1-.4-.2-.6-.3-1.4v-.3c-.1-1.1-.7-2.1-1.7-2.9-.4-.3-.8-.5-1.3-.8-.5-.3-1.1-.7-1.6-1.1-2-1.6-2.8-4-1.9-6.1l2.6.6c-.6 1.4 0 3.1 1.3 4.2.4.3.8.6 1.3.9.5.3 1 .6 1.5 1 1.4 1.1 2.3 2.6 2.5 4.1v.4c.1.2.4 1.3.6 1.6l.6 1.5c-2.9.3-3.7.1-3.9-.2zM138.1 147.5c-1.1-.5.5-3.2.7-3.6.1-.1.1-.2.2-.4.2-.3.3-.5.4-.7.1-.3.1-.6 0-.8-.1-.2-.4-.3-.6-.5-.4-.3-.9-.6-1.2-1-.3-.5-.2-1-.2-1.3l.4-3.5 2 .1-.4 3.5c0 .2-.1.5.1.7.1.2.4.3.7.5.4.2.8.5 1.1.9.3.4.3.9.2 1.8-.1.4-.2.7-.2.9-.2.5-.3.7-.4 1l-.4 2.3c-.3.1-.7.1-1.2.1-.7.1-.9.1-1.2 0zM145.6 152.6c-1.4.1-1.9-.1-2-.3-.6-.8 2-2.5 1.4-4.2 0-.1-.1-.4-.3-.8-.2-.5-.4-1.1-.4-1.8.1-1 .7-1.8 1.2-2.5l3.7-4.7 1.9 1-3.7 4.7c-.4.5-.8 1.1-.9 1.6 0 .3.1.7.3 1.2.2.6.3 1 .3 1 .4.5.2 1.7-1.5 4.8z"/><image width="76" height="77" xlink:href="201AAEE5.png" transform="translate(100.712 98)" overflow="visible"/><radialGradient id="SVGID_7_" cx="564.276" cy="45.46" r="4.65" gradientTransform="matrix(.849 .028 .005 1.3 -340.574 58.52)" gradientUnits="userSpaceOnUse"><stop offset=".212" stop-color="#D60000"/><stop offset=".54" stop-color="#D40000"/><stop offset=".676" stop-color="#CD0000"/><stop offset=".777" stop-color="#C10000"/><stop offset=".86" stop-color="#AF0000"/><stop offset=".931" stop-color="#980000"/><stop offset=".995" stop-color="#7D0000"/><stop offset="1" stop-color="#7A0000"/></radialGradient><path class="st62" d="M142.5 134.8c-.1 1.3-.9 2.1-1.3 2.4-.3.3-.7.5-1 .6-.5.2-.9.2-1.3.2s-1.2 0-2-.3c-.6-.2-1.2-.7-1.5-1.5-.2-.6-.2-1.1-.1-1.7.1-1.9 1-5.1 2.9-5.5 1.3-.3 2.4 1 3 2 .2.3.4.6.5.8l.2.3c.3.7.7 1.7.6 2.7z"/><path class="st63" d="M138 130.8c0 .4-.2.8-.5.8s-.5-.5-.5-.8c0-.1 0-.4.1-.6.2-.3.4-.2.4-.2.2 0 .3.2.3.3.1 0 .2.2.2.5zM141.8 132.1c-.1.1-.2.3-.4.2-.2-.1-.3-.4-.3-.4-.1-.3 0-.5 0-.5s0-.2.1-.3c.2.3.4.6.5.8 0 0 .1.1.1.2zM140 133.1c0 .4-.3.7-.5.7-.3 0-.5-.4-.6-.8 0-.1-.1-.5 0-.9s.5-.3.5-.3c.2.1.4.4.4.5.1.2.2.5.2.8zM137 135.9c.1.2 0 .6-.2.7-.2.2-.4.2-.5 0 0 0-.2-.2-.2-.4 0-.3.2-.5.2-.5.2-.1.3-.1.4 0 .1 0 .2 0 .3.2zM141.1 134.1c.2.1.3.5.3.8 0 .3-.2.6-.5.6 0 0-.3 0-.4-.2-.2-.3-.1-.7-.1-.7.1-.3.2-.4.3-.4 0-.1.2-.2.4-.1z"/><path class="st64" d="M137.6 133.7c0 .3-.2.6-.4.6s-.4-.2-.5-.6c0-.3.1-.6.1-.6 0-.1.1-.2.3-.2.2 0 .3.2.3.3.1 0 .2.2.2.5z"/><path class="st63" d="M139.3 136.1c.1.3 0 .8-.2 1.1-.2.3-.6.5-.8.2-.2-.2-.2-.6-.2-.7 0-.1 0-.4.2-.6.2-.2.4-.2.5-.2.2-.1.4-.1.5.2z"/><image width="79" height="78" xlink:href="201AAEE7.png" transform="translate(109.712 101)" overflow="visible"/><radialGradient id="SVGID_8_" cx="277.292" cy="-66.933" r="4.65" gradientTransform="matrix(1.398 .694 -.686 1.416 -282.136 38.88)" gradientUnits="userSpaceOnUse"><stop offset=".212" stop-color="#D60000"/><stop offset=".54" stop-color="#D40000"/><stop offset=".676" stop-color="#CD0000"/><stop offset=".777" stop-color="#C10000"/><stop offset=".86" stop-color="#AF0000"/><stop offset=".931" stop-color="#980000"/><stop offset=".995" stop-color="#7D0000"/><stop offset="1" stop-color="#7A0000"/></radialGradient><path class="st65" d="M156.8 140.8c-.9 1.3-2.6 1.5-3.4 1.6-.7.1-1.4 0-2-.1-.8-.2-1.6-.5-2.2-.8-.7-.3-2.1-.9-3.2-1.9-.9-.7-1.6-1.7-1.6-2.8 0-.8.3-1.4.7-1.9 1.2-2 4.4-4.8 7.7-3.7 2.3.7 3.4 3 3.9 4.5.2.5.3.9.3 1.2l.1.4c.2 1.1.4 2.4-.3 3.5z"/><path class="st63" d="M151.4 132.8c-.2.4-.7.7-1.2.5-.5-.2-.6-.9-.4-1.3 0-.1.1-.4.5-.5.4-.2.8.1.8.1.3.2.4.5.4.6l-.1.6zM157.1 137.3h-.1c-.1 0-.4.1-.7-.1-.3-.3-.3-.7-.3-.7 0-.3.2-.5.3-.6 0 0 .2-.2.3-.2.2.5.3.9.3 1.2l.2.4zM153.5 136.9c-.3.4-.9.5-1.3.4-.4-.2-.6-.8-.6-1.3 0-.1.1-.6.5-.9.5-.4 1 0 1 .1.3.3.4.7.4.8.1.2.2.6 0 .9zM147 137.7c0 .3-.3.6-.6.7-.4.1-.7-.1-.9-.4 0-.1-.2-.3-.1-.6.2-.3.6-.4.7-.4.3 0 .5.2.6.2.1.1.3.2.3.5zM154.8 138.8c.3.3.3.8 0 1.1-.2.3-.7.4-1.1.3-.1 0-.5-.2-.6-.5-.2-.4.2-.8.2-.8.3-.2.6-.2.7-.2.2-.1.5-.1.8.1z"/><path class="st64" d="M149.2 135.7c-.2.3-.7.4-1 .3-.3-.1-.6-.6-.4-1 .1-.4.5-.5.6-.6.1 0 .4-.2.6 0 .3.1.3.5.3.6 0 .1.1.5-.1.7z"/><path class="st63" d="M150.8 139.7c.1.4-.4.9-.9 1-.5.2-1.2 0-1.4-.4-.2-.4.1-.8.1-.9.1-.1.3-.4.7-.5.4-.1.8.1.9.1.2.1.6.3.6.7z"/><image width="80" height="78" xlink:href="201AAEE4.png" transform="translate(88.712 100)" overflow="visible"/><radialGradient id="SVGID_9_" cx="-664.325" cy="192.096" r="4.65" gradientTransform="matrix(-1.492 .45 .445 1.511 -949.67 144.171)" gradientUnits="userSpaceOnUse"><stop offset=".212" stop-color="#D60000"/><stop offset=".54" stop-color="#D40000"/><stop offset=".676" stop-color="#CD0000"/><stop offset=".777" stop-color="#C10000"/><stop offset=".86" stop-color="#AF0000"/><stop offset=".931" stop-color="#980000"/><stop offset=".995" stop-color="#7D0000"/><stop offset="1" stop-color="#7A0000"/></radialGradient><path class="st66" d="M121.2 138.5c.7 1.5 2.3 2 3.1 2.2.7.2 1.4.3 2 .2.9 0 1.6-.2 2.3-.4.7-.2 2.2-.6 3.5-1.3 1-.6 1.9-1.4 2.1-2.5.1-.8-.1-1.4-.4-2-.9-2.1-3.5-5.4-7-5-2.4.3-3.9 2.3-4.6 3.8l-.5 1.1-.2.4c-.4 1-.9 2.3-.3 3.5z"/><path class="st63" d="M126.9 132.1c.1.5.7 1 1.3.8.7-.2.9-1 .8-1.5 0-.1-.1-.5-.5-.8-.4-.3-.9-.1-1 0-.4.2-.5.5-.6.6.1.2 0 .5 0 .9zM122 133.8l.1.1c.1 0 .4.2.7.1.4-.2.4-.6.5-.6.1-.3-.1-.6-.1-.7 0-.1-.1-.2-.3-.3-.3.4-.5.8-.6 1.1l-.3.3zM125.9 134.7c.1.3.6.5.9.4.3-.1.6-.5.6-.9 0-.1 0-.5-.2-.7-.3-.3-.7-.1-.8-.1-.3.1-.4.4-.4.6-.1.2-.2.4-.1.7zM132.3 138c.3 0 .5-.4.6-.7 0-.4-.2-.7-.5-.9-.1 0-.4-.2-.6 0-.3.2-.3.7-.3.7 0 .3.2.5.3.6.1.1.3.3.5.3zM123.5 136c-.4.2-.5.6-.4 1 .1.4.5.7.9.7.1 0 .5 0 .8-.2.3-.3.1-.8.1-.9-.2-.3-.5-.5-.6-.5-.2-.1-.5-.2-.8-.1z"/><path class="st64" d="M129.3 134.2c-.3.4-.2 1 .1 1.3.3.3 1 .4 1.4.1.4-.3.4-.8.5-.9 0-.1 0-.5-.2-.7-.3-.3-.7-.2-.8-.2-.3-.1-.7 0-1 .4z"/><path class="st63" d="M127.2 138.3c-.1.4.3.9.7 1.2.5.2 1.2.2 1.4-.2.2-.3.1-.8 0-.9-.1-.1-.2-.4-.6-.6-.4-.2-.8-.1-.9 0 0 .1-.5.2-.6.5z"/><path class="st61" d="M124.3 131c.1-.2-.3-.4-.2-.9 0-.2.1-.4.2-.8v-.2c.1-.6.4-1.3 1-1.7.2-.2.5-.3.8-.5l1-.6c1.2-1 1.7-2.4 1.2-3.7l-1.6.3c.4.9 0 1.9-.8 2.6-.2.2-.5.4-.8.5l-.9.6c-.9.7-1.4 1.6-1.5 2.5v.2c-.1.1-.2.8-.4 1-.1.3-.2.6-.4.9 1.8.1 2.3 0 2.4-.2zM121.5 127.8c.6-.3-.3-1.9-.5-2.2l-.1-.2c-.1-.2-.2-.3-.3-.4-.1-.2-.1-.4 0-.5.1-.1.2-.2.4-.3.3-.2.5-.3.7-.6.2-.3.1-.6.1-.8l-.2-2.1-1.2.1.2 2.1v.4c-.1.1-.2.2-.4.3-.2.1-.5.3-.7.5-.2.3-.2.5-.1 1.1 0 .3.1.5.1.6.1.3.2.4.3.6.3.8-.1 1.2.3 1.4.2.1.4.1.7.1.4 0 .6 0 .7-.1zM117 130.9c.9.1 1.1 0 1.2-.2.4-.5-1.2-1.5-.9-2.6l.2-.5c.1-.3.3-.7.2-1.1 0-.6-.4-1.1-.7-1.5l-2.2-2.9-1.2.6 2.2 2.9c.2.3.5.7.5 1 0 .2-.1.4-.2.7l-.2.6c-.1.4.1 1.1 1.1 3z"/><image width="75" height="75" xlink:href="201AAEEC.png" transform="translate(83.712 84)" overflow="visible"/><radialGradient id="SVGID_10_" cx="-10.682" cy="47.051" r="2.829" gradientTransform="matrix(-.849 .028 -.005 1.3 112.21 58.52)" gradientUnits="userSpaceOnUse"><stop offset=".212" stop-color="#D60000"/><stop offset=".54" stop-color="#D40000"/><stop offset=".676" stop-color="#CD0000"/><stop offset=".777" stop-color="#C10000"/><stop offset=".86" stop-color="#AF0000"/><stop offset=".931" stop-color="#980000"/><stop offset=".995" stop-color="#7D0000"/><stop offset="1" stop-color="#7A0000"/></radialGradient><path class="st67" d="M118.9 120.1c.1.8.6 1.3.8 1.5.2.2.4.3.6.4.3.1.5.1.8.1.2 0 .8 0 1.2-.2.4-.1.7-.4.9-.9.1-.4.1-.7.1-1-.1-1.2-.6-3.1-1.7-3.3-.8-.2-1.4.6-1.8 1.2-.1.2-.2.4-.3.5l-.1.2c-.3.3-.6.9-.5 1.5z"/><path class="st63" d="M121.6 117.6c0 .2.1.5.3.5.2 0 .3-.3.3-.5 0 0 0-.2-.1-.3-.1-.2-.2-.1-.2-.1-.1 0-.2.2-.2.2s-.1.1-.1.2zM119.3 118.5c.1.1.1.2.3.1.1 0 .2-.2.2-.3v-.3s0-.1-.1-.2c-.1.2-.2.4-.3.5l-.1.2zM120.4 119.1c0 .3.2.4.3.4.2 0 .3-.2.4-.5 0-.1.1-.3 0-.5-.1-.3-.3-.2-.3-.2-.1 0-.2.2-.2.3-.1.1-.2.3-.2.5zM122.2 120.8c0 .1 0 .3.1.4.1.1.2.1.3 0 0 0 .1-.1.1-.3 0-.2-.1-.3-.1-.3-.1-.1-.2 0-.2 0-.1 0-.1.1-.2.2zM119.8 119.6c-.1.1-.2.3-.2.5s.1.3.3.4c0 0 .2 0 .3-.1.1-.2.1-.4.1-.4 0-.2-.1-.2-.2-.3-.2 0-.3-.1-.3-.1z"/><path class="st64" d="M121.9 119.4c0 .2.1.3.2.3s.3-.1.3-.4c0-.2-.1-.3-.1-.4 0 0-.1-.1-.2-.1s-.2.1-.2.2-.1.3 0 .4z"/><path class="st63" d="M120.8 120.9c-.1.2 0 .5.1.7.1.2.3.3.5.1.1-.1.1-.4.1-.4 0-.1 0-.2-.1-.4-.1-.1-.2-.1-.3-.1-.1-.1-.2-.1-.3.1z"/><image width="78" height="76" xlink:href="201AAEED.png" transform="translate(75.712 85)" overflow="visible"/><radialGradient id="SVGID_11_" cx="-11.409" cy="63.748" r="2.829" gradientTransform="matrix(-1.398 .694 .686 1.416 53.773 38.88)" gradientUnits="userSpaceOnUse"><stop offset=".212" stop-color="#D60000"/><stop offset=".54" stop-color="#D40000"/><stop offset=".676" stop-color="#CD0000"/><stop offset=".777" stop-color="#C10000"/><stop offset=".86" stop-color="#AF0000"/><stop offset=".931" stop-color="#980000"/><stop offset=".995" stop-color="#7D0000"/><stop offset="1" stop-color="#7A0000"/></radialGradient><path class="st68" d="M110.2 123.8c.5.8 1.6.9 2.1 1 .5.1.9 0 1.2-.1.5-.1 1-.3 1.4-.5.4-.2 1.3-.6 2-1.1.5-.5 1-1 1-1.7 0-.5-.2-.8-.4-1.2-.7-1.2-2.7-2.9-4.7-2.3-1.4.5-2.1 1.8-2.4 2.7-.1.3-.2.5-.2.7 0 .1 0 .2-.1.3-.2.7-.4 1.5.1 2.2z"/><path class="st63" d="M113.5 118.9c.1.2.4.4.7.3.3-.1.3-.5.3-.8 0 0-.1-.3-.3-.3-.2-.1-.5.1-.5.1-.2.1-.2.3-.2.4-.1 0-.1.1 0 .3zM110 121.6c0 .1.1.1 0 0 .1 0 .3.1.5-.1s.2-.4.2-.4c0-.2-.1-.3-.2-.4 0 0-.1-.1-.2-.1-.1.3-.2.5-.2.7 0 .2-.1.2-.1.3zM112.2 121.4c.2.3.5.3.8.2.3-.1.4-.5.3-.8 0-.1-.1-.4-.3-.6-.3-.2-.6 0-.6 0-.2.2-.2.4-.3.5 0 .2 0 .5.1.7zM116.1 121.8c0 .2.2.4.4.4s.4-.1.5-.3c0 0 .1-.2 0-.4s-.4-.2-.4-.2c-.2 0-.3.1-.4.1.1.2-.1.3-.1.4zM111.4 122.5c-.2.2-.2.5 0 .7.1.2.4.3.7.2 0 0 .3-.1.4-.3.1-.3-.1-.5-.1-.5-.2-.2-.4-.1-.4-.1-.3-.1-.5-.1-.6 0z"/><path class="st64" d="M114.8 120.7c.1.2.4.3.6.2.2-.1.3-.4.3-.6l-.3-.4c-.1 0-.2-.1-.4 0s-.2.3-.2.3c-.1.1-.1.3 0 .5z"/><path class="st63" d="M113.8 123.1c0 .3.2.5.5.6.3.1.7 0 .8-.2.1-.2 0-.5-.1-.5 0-.1-.2-.2-.4-.3-.3-.1-.5 0-.5.1 0-.1-.3 0-.3.3z"/><image width="77" height="76" xlink:href="201AAEEF.png" transform="translate(88.712 85)" overflow="visible"/><radialGradient id="SVGID_12_" cx="-369.323" cy="94.327" r="2.829" gradientTransform="matrix(1.492 .45 -.445 1.511 721.307 144.171)" gradientUnits="userSpaceOnUse"><stop offset=".212" stop-color="#D60000"/><stop offset=".54" stop-color="#D40000"/><stop offset=".676" stop-color="#CD0000"/><stop offset=".777" stop-color="#C10000"/><stop offset=".86" stop-color="#AF0000"/><stop offset=".931" stop-color="#980000"/><stop offset=".995" stop-color="#7D0000"/><stop offset="1" stop-color="#7A0000"/></radialGradient><path class="st69" d="M131.8 122.3c-.4.9-1.4 1.2-1.9 1.3-.4.1-.8.2-1.2.1-.5 0-1-.1-1.4-.3-.4-.1-1.3-.4-2.1-.8-.6-.4-1.1-.8-1.3-1.5-.1-.5.1-.8.2-1.2.5-1.3 2.1-3.3 4.3-3 1.5.2 2.4 1.4 2.8 2.3.1.3.3.5.3.7l.1.3c.3.6.6 1.4.2 2.1z"/><path class="st63" d="M128.3 118.5c-.1.3-.4.6-.8.5-.4-.1-.5-.6-.5-.9 0-.1.1-.3.3-.5.3-.2.6 0 .6 0 .2.1.3.3.4.4 0 0 .1.2 0 .5zM131.3 119.5c-.1.1-.3.2-.5.1s-.3-.4-.3-.4c0-.2.1-.3.1-.4l.2-.2c.2.3.3.5.4.6l.1.3zM128.9 120c-.1.2-.3.3-.5.3-.2-.1-.3-.3-.3-.5 0 0 0-.3.1-.4.2-.2.4-.1.5 0 .2.1.2.3.2.3.1 0 .1.2 0 .3zM125.1 122c-.2 0-.3-.2-.4-.4 0-.2.1-.4.3-.5 0 0 .2-.1.4 0s.2.4.2.4c0 .2-.1.3-.2.4l-.3.1zM130.4 120.8c.2.1.3.4.3.6-.1.2-.3.4-.6.4-.1 0-.3 0-.5-.1-.2-.2-.1-.5 0-.5.1-.2.3-.3.4-.3.1-.1.2-.1.4-.1z"/><path class="st64" d="M126.9 119.7c.2.3.1.6 0 .8-.2.2-.6.3-.9 0-.2-.2-.3-.5-.3-.6 0-.1 0-.3.1-.5.2-.2.4-.1.5-.1.2.1.4.2.6.4z"/><path class="st63" d="M128.2 122.3c.1.3-.2.6-.4.7-.3.1-.7.1-.9-.1-.1-.2 0-.5 0-.5 0-.1.1-.3.4-.4.3-.1.5 0 .6 0-.1 0 .2 0 .3.3z"/></svg>