<svg xmlns="http://www.w3.org/2000/svg" viewBox="0 0 387.2 59.3" enable-background="new 0 0 387.2 59.3"><style type="text/css">.st0{fill:#FFFFFF;}</style><path class="st0" d="M104.2 25.8c-.7-1.9-1.7-3.5-3-5-1.3-1.4-2.8-2.6-4.5-3.4-1.7-.8-3.6-1.3-5.7-1.3-2.3 0-4.4.6-6.3 1.7-1.9 1.1-3.4 2.6-4.6 4.5v-5.6h-4.5v42.3h5.1v-18.2c1.1 1.9 2.6 3.4 4.5 4.7 1.9 1.2 4.1 1.8 6.6 1.8 2 0 3.8-.4 5.5-1.2 1.7-.8 3.1-1.9 4.3-3.3 1.2-1.4 2.1-3 2.8-4.9.7-1.9 1-3.9 1-6.1-.2-2.1-.5-4.1-1.2-6zm-4.9 10c-.5 1.3-1.1 2.5-2 3.6-.9 1.1-1.9 1.9-3.1 2.5-1.2.6-2.6.9-4.1.9-1 0-2-.2-3-.5-1-.4-1.9-.9-2.7-1.5-.8-.6-1.6-1.4-2.2-2.2-.7-.9-1.2-1.8-1.6-2.8v-8.6c.2-.9.6-1.8 1.2-2.6s1.4-1.5 2.2-2.1c.9-.6 1.8-1.1 2.8-1.4 1-.4 1.9-.5 2.8-.5 1.5 0 2.8.3 4.1.9 1.2.6 2.3 1.4 3.2 2.4.9 1 1.6 2.2 2.2 3.6.5 1.4.8 2.8.8 4.3.1 1.3-.1 2.7-.6 4zM135.7 23.8c-.3-1.6-.9-2.9-1.6-4-.7-1.1-1.7-2-2.9-2.6-1.2-.7-2.7-1-4.5-1-2.4 0-4.6.6-6.7 1.8-2 1.2-3.6 2.9-4.8 5.1v-18.4h-5.1v42h5.1v-18.1c.3-1.1.9-2.2 1.5-3.2.7-1 1.4-1.8 2.3-2.5.9-.7 1.8-1.2 2.8-1.6 1-.4 2-.6 3-.6 2.1 0 3.6.8 4.7 2.3 1.1 1.5 1.6 3.8 1.6 6.9v16.8h5.1v-17.9c0-1.8-.1-3.5-.5-5zM170 25.8c-.8-1.9-1.8-3.5-3.1-4.9-1.3-1.4-2.9-2.5-4.8-3.4-1.9-.8-3.9-1.3-6.2-1.3-2.2 0-4.3.4-6.1 1.3-1.9.8-3.5 2-4.8 3.4-1.3 1.4-2.4 3.1-3.1 4.9-.7 1.9-1.1 3.9-1.1 6s.4 4 1.1 5.9c.7 1.9 1.8 3.5 3.1 4.9 1.3 1.4 2.9 2.5 4.8 3.4 1.9.8 3.9 1.3 6.2 1.3 2.3 0 4.3-.4 6.2-1.3 1.9-.8 3.5-2 4.8-3.4 1.3-1.4 2.4-3.1 3.1-4.9.7-1.9 1.1-3.9 1.1-5.9-.1-2.2-.5-4.2-1.2-6zm-4.9 10.3c-.5 1.4-1.2 2.5-2.2 3.6-.9 1-2 1.8-3.2 2.4-1.2.6-2.5.9-3.9.9s-2.7-.3-3.9-.9c-1.2-.6-2.3-1.4-3.2-2.4-.9-1-1.6-2.2-2.1-3.5-.5-1.3-.8-2.8-.8-4.4s.3-3 .8-4.4c.5-1.4 1.2-2.6 2.1-3.6.9-1 2-1.8 3.2-2.4 1.2-.6 2.5-.9 3.9-.9s2.7.3 3.9.9c1.2.6 2.3 1.4 3.2 2.4.9 1 1.6 2.2 2.2 3.6.5 1.4.8 2.8.8 4.3 0 1.6-.3 3-.8 4.4zM190.3 41.2c-.3.2-.9.5-1.7.8-.8.3-1.7.5-2.7.5-.9 0-1.7-.3-2.3-.7-.7-.5-1-1.3-1.1-2.4v-18.8h6.7v-4h-6.7v-10h-5.1v10h-4.1v4h4.1v20.2c0 2.1.7 3.7 2 4.7s2.9 1.5 4.8 1.5c.8 0 1.6-.1 2.3-.2.7-.1 1.4-.3 2.1-.5.6-.2 1.2-.4 1.7-.6.5-.2.9-.4 1.2-.5l-1.2-4zM222.2 25.8c-.7-1.9-1.8-3.5-3.1-4.9-1.3-1.4-2.9-2.5-4.8-3.4-1.9-.8-3.9-1.3-6.2-1.3s-4.3.4-6.1 1.3c-1.9.8-3.4 2-4.8 3.4-1.3 1.4-2.4 3.1-3.1 4.9-.7 1.9-1.1 3.9-1.1 6s.4 4 1.1 5.9c.7 1.9 1.8 3.5 3.1 4.9 1.3 1.4 2.9 2.5 4.8 3.4 1.9.8 3.9 1.3 6.2 1.3 2.3 0 4.3-.4 6.2-1.3 1.9-.8 3.5-2 4.8-3.4 1.3-1.4 2.4-3.1 3.1-4.9.7-1.9 1.1-3.9 1.1-5.9-.1-2.2-.4-4.2-1.2-6zm-4.8 10.3c-.5 1.4-1.2 2.5-2.2 3.6-.9 1-2 1.8-3.2 2.4-1.2.6-2.5.9-3.9.9s-2.7-.3-3.9-.9c-1.2-.6-2.3-1.4-3.2-2.4-.9-1-1.6-2.2-2.1-3.5-.5-1.3-.8-2.8-.8-4.4s.3-3 .8-4.4c.5-1.4 1.2-2.6 2.1-3.6.9-1 2-1.8 3.2-2.4 1.2-.6 2.5-.9 3.9-.9s2.7.3 3.9.9c1.2.6 2.3 1.4 3.2 2.4.9 1 1.6 2.2 2.2 3.6.5 1.4.8 2.8.8 4.3 0 1.6-.3 3-.8 4.4zM239.9 41.8c-.5.2-1 .4-1.6.5-.6.1-1.1.2-1.5.2-1.1 0-1.9-.3-2.5-.9-.6-.6-.9-1.5-.9-2.6v-34.3h-5.1v36.1c0 2 .6 3.5 1.7 4.7 1.1 1.1 2.7 1.7 4.6 1.7.9 0 1.9-.1 3.1-.3 1.1-.2 2.1-.5 3-.9l-.8-4.2zM271.1 25.7c-.7-1.9-1.7-3.5-3-4.9-1.3-1.4-2.9-2.5-4.7-3.4-1.9-.8-3.9-1.3-6.2-1.3-2.3 0-4.3.4-6.2 1.2-1.9.8-3.5 1.9-4.9 3.4-1.4 1.4-2.4 3.1-3.2 4.9-.8 1.9-1.1 3.9-1.1 6s.4 4.1 1.1 6c.7 1.9 1.8 3.6 3.1 5s3 2.5 4.8 3.4c1.9.8 3.9 1.2 6.2 1.2 1.5 0 2.9-.2 4.3-.6 1.4-.4 2.6-.9 3.8-1.6 1.1-.7 2.1-1.5 3-2.4.9-.9 1.5-1.9 2-3.1l-4.4-1.2c-.3.8-.8 1.5-1.4 2.1-.6.6-1.3 1.1-2 1.6-.8.4-1.6.8-2.5 1-.9.3-1.8.4-2.7.4-1.3 0-2.5-.3-3.7-.7-1.2-.5-2.2-1.2-3.1-2.1-.9-.9-1.7-1.9-2.2-3.2-.6-1.2-.9-2.6-1-4.1h24.9c0-.2.1-.5.1-.8v-1.2c.1-1.8-.2-3.8-1-5.6zm-24 4c.1-1.4.4-2.7 1-3.9.6-1.2 1.3-2.2 2.2-3.1.9-.9 1.9-1.5 3.1-2 1.2-.5 2.5-.7 3.8-.7 1.3 0 2.6.2 3.8.7 1.2.5 2.2 1.1 3.1 2 .9.8 1.7 1.9 2.2 3.1.6 1.2 1 2.5 1.1 3.9h-20.3zM303 23.7c-.3-1.5-.8-2.9-1.5-4s-1.6-2-2.8-2.6c-1.2-.6-2.6-.9-4.3-.9-2.6 0-5.1.6-7.3 1.9-2.2 1.3-4 3-5.1 5.1v-6.4h-4.6v30h5.1v-18.2c.3-1.1.9-2.2 1.6-3.2.7-1 1.5-1.8 2.4-2.5.9-.7 1.9-1.2 2.9-1.6 1-.4 2.1-.6 3.1-.6 2 0 3.5.7 4.5 2.2 1 1.5 1.5 3.8 1.5 7v16.8h5.1v-17.9c-.1-1.9-.3-3.5-.6-5.1zM332.2 34.9c-.5-.9-1.2-1.6-2.2-2.3-1-.7-2.2-1.2-3.7-1.7s-3.2-.9-5.2-1.4c-1.3-.3-2.3-.6-3.2-.9-.9-.3-1.6-.6-2.2-.9-.6-.3-1-.8-1.2-1.2-.3-.5-.4-1-.4-1.7 0-1.7.6-3 1.9-3.8 1.3-.8 2.8-1.2 4.7-1.2 1.6 0 3.3.3 4.8.8 1.6.6 3 1.4 4.3 2.5l2.3-3.1c-1.3-1.2-3-2.1-4.9-2.9-2-.7-4.1-1.1-6.3-1.1-1.6 0-3.1.2-4.5.6-1.4.4-2.6 1-3.7 1.8-1 .8-1.9 1.8-2.4 2.9-.6 1.2-.9 2.5-.9 4 0 1.2.2 2.2.6 3 .4.8 1 1.5 1.8 2.1.8.6 1.9 1.1 3.2 1.5 1.3.4 2.9.9 4.7 1.3 1.4.3 2.7.7 3.7 1 1.1.3 2 .7 2.6 1 .7.4 1.2.8 1.6 1.4.3.5.5 1.1.5 1.9 0 1.6-.6 2.8-1.9 3.6-1.3.9-3 1.3-5.2 1.3-2 0-3.8-.3-5.6-1-1.8-.7-3.5-1.7-5.3-3l-2.2 3.4c1.7 1.4 3.7 2.5 6 3.3 2.3.7 4.7 1.1 7.1 1.1 3.6 0 6.5-.8 8.7-2.5 2.1-1.7 3.2-3.9 3.2-6.7.1-1.1-.2-2.2-.7-3.1zM365.5 25.8c-.7-1.9-1.8-3.5-3.1-4.9-1.3-1.4-2.9-2.5-4.8-3.4-1.9-.8-3.9-1.3-6.2-1.3-2.2 0-4.3.4-6.1 1.3-1.9.8-3.4 2-4.8 3.4-1.3 1.4-2.4 3.1-3.1 4.9-.7 1.9-1.1 3.9-1.1 6s.4 4 1.1 5.9c.7 1.9 1.8 3.5 3.1 4.9 1.3 1.4 2.9 2.5 4.8 3.4 1.9.8 3.9 1.3 6.2 1.3s4.3-.4 6.2-1.3c1.9-.8 3.5-2 4.8-3.4 1.3-1.4 2.4-3.1 3.1-4.9.7-1.9 1.1-3.9 1.1-5.9-.1-2.2-.5-4.2-1.2-6zm-4.9 10.3c-.5 1.4-1.2 2.5-2.2 3.6-.9 1-2 1.8-3.2 2.4-1.2.6-2.5.9-3.9.9s-2.7-.3-3.9-.9c-1.2-.6-2.3-1.4-3.2-2.4-.9-1-1.6-2.2-2.1-3.5-.5-1.3-.8-2.8-.8-4.4s.3-3 .8-4.4c.5-1.4 1.2-2.6 2.1-3.6.9-1 2-1.8 3.2-2.4 1.2-.6 2.5-.9 3.9-.9s2.7.3 3.9.9c1.2.6 2.3 1.4 3.2 2.4.9 1 1.6 2.2 2.2 3.6.5 1.4.8 2.8.8 4.3 0 1.6-.3 3-.8 4.4zM386.6 16.4h-1c-1.9.2-3.7.9-5.4 2.2-1.7 1.3-3 3-4.1 5v-7h-4.7v30h5.1v-18.4c.8-2.2 2.2-3.9 4.1-5.1 1.9-1.2 4.2-1.9 6.7-2v-4.6c-.3 0-.5-.1-.7-.1zM54.6 35c-4.8-6.3-9.6-10.8-11-12h-.3c-2.7-.1-5.3 0-7.6.1 2.4 2.4 6.2 6.3 10 11.4 2.6 3.4 5.4 7.7 7.8 12.4 1.7-2.4 3-5.1 3.9-7.8-.9-1.4-1.9-2.8-2.8-4.1zm4-10.2c-3.5-.8-7-1.3-10.2-1.6 2.2 2.2 5.4 5.6 8.6 9.8l1.5 2.1c.7-3.3.7-6.9.1-10.3zm-4.3-11.2c-10.1-.9-19 .4-21.2.8-1.8 2.2-3.4 4.3-4.8 6.3 3.3-.4 8.8-.9 15.1-.8 4.3.1 9.4.5 14.5 1.6-.8-2.8-2-5.4-3.6-7.9zm-6.4-7.1c-1.3-1-2.6-1.9-4-2.7-2.8 2.2-5.3 4.6-7.6 7.1 3.1-.4 7.7-.8 13-.6l2.6.1c-1.2-1.5-2.5-2.8-4-3.9zm-1.6 34.1c-.3 3.1-1 7.7-2.3 12.8-.2.9-.4 1.7-.7 2.5 3-1.6 5.7-3.7 8.1-6.4-1.5-3.2-3.3-6.2-5.1-8.9zm-3-4.2c-1.7-2.2-3.3-4.2-4.8-5.9-.3 3.4-1.1 8.8-2.6 15-1 4.2-2.6 9.1-4.8 13.9 2.9-.2 5.8-.7 8.5-1.7.6-1.7 1-3.4 1.4-4.9 1.9-7.7 2.4-14.3 2.5-16.1-.1-.2-.1-.2-.2-.3zm-23.2 19.5l-2.4 1.1c3.2 1.4 6.6 2.2 10 2.4 1.6-3.2 2.8-6.6 3.8-9.7-2.6 1.7-6.6 4-11.4 6.2zm1.1-11.4c-3.9 1.8-8.6 3.6-13.7 4.9 1.1 1.2 2.3 2.4 3.7 3.5 1 .8 2 1.5 3 2.1 9.5-3.5 16.9-8.7 18.7-10 0-.1 0-.2.1-.2.7-2.7 1.2-5.2 1.6-7.5-3 1.8-7.6 4.6-13.4 7.2zm11.2-44.4c-1.2 1.3-2.4 2.6-3.4 3.8-5 6.1-8.2 11.8-9.1 13.4 0 .1 0 .2.1.3.5 2.7 1.2 5.2 1.8 7.4 1.8-2.9 4.8-7.4 8.8-12.3 2.8-3.3 6.2-7 10.3-10.4-2.8-1.2-5.6-1.9-8.5-2.2zm-14.1 2.1c0 3.6.3 7.1.7 10.4 1.7-2.7 4.3-6.6 7.7-10.6l1.7-2c-3.5.1-6.9.9-10.1 2.2zm-5.5 30.2c-3.8-2-8.2-4.5-12.3-7.7-.5 2.9-.6 5.8-.2 8.7 8.7 5.3 17.3 7.9 19.4 8.5l.2-.1c2.5-1.1 4.8-2.3 6.8-3.5-3.2-1.1-8.3-3-13.9-5.9zm-6.6-17.7l-.5-2.6c-2.1 2.9-3.6 6-4.6 9.3 2.7 2.2 5.6 4.2 8.5 5.9-1-3.1-2.4-7.5-3.4-12.6zm10.7 3.5c-.8-4.2-1.5-9.2-1.6-14.5-2.5 1.3-4.8 3.1-6.9 5.2.2 1.8.5 3.5.8 5.1 1.5 7.7 3.9 13.7 4.7 15.5 2.5 1.3 5 2.4 7.1 3.3-1.1-3.1-2.8-8.3-4.1-14.6zm-13.6 20.4l-2.3-1.2c.9 3.3 2.3 6.5 4.3 9.4 3.5-.8 6.9-1.9 9.9-3.1-2.9-1-7.2-2.7-11.9-5.1z"/></svg>