<svg aria-hidden="true" style="position: absolute; width: 0; height: 0; overflow: hidden;" version="1.1" xmlns="http://www.w3.org/2000/svg" xmlns:xlink="http://www.w3.org/1999/xlink">
<defs>
<symbol id="icon-copyright" viewBox="0 0 32 32">
<path fill="#fff" style="fill: var(--color1, #fff)" d="M32 16c0 8.837-7.163 16-16 16s-16-7.163-16-16c0-8.837 7.163-16 16-16s16 7.163 16 16z"></path>
<path fill="#8c2c93" style="fill: var(--color2, #8c2c93)" d="M20.026 21.439c-0.671 0.318-1.943 0.636-3.497 0.636-3.85 0-6.358-2.472-6.358-6.287 0.035-3.709 2.543-6.605 6.887-6.605 1.13 0 2.296 0.247 3.002 0.565l-0.565 2.331c-0.494-0.212-1.236-0.494-2.366-0.494-2.366 0-3.815 1.731-3.779 3.991 0 2.543 1.66 3.991 3.779 3.991 1.095 0 1.837-0.212 2.472-0.494l0.424 2.366zM16 28.362c-6.817 0-12.362-5.545-12.362-12.362s5.545-12.362 12.362-12.362 12.362 5.545 12.362 12.362-5.545 12.362-12.362 12.362zM16 6.676c-5.157 0-9.325 4.168-9.325 9.325s4.168 9.325 9.325 9.325 9.325-4.168 9.325-9.325-4.168-9.325-9.325-9.325z"></path>
</symbol>
<symbol id="icon-email" viewBox="0 0 32 32">
<path fill="#fff" style="fill: var(--color1, #fff)" d="M32 16c0 8.837-7.163 16-16 16s-16-7.163-16-16c0-8.837 7.163-16 16-16s16 7.163 16 16z"></path>
<path fill="none" stroke="#8c2c93" style="stroke: var(--color2, #8c2c93)" stroke-linejoin="miter" stroke-linecap="butt" stroke-miterlimit="10" stroke-width="2.594" d="M26.080 23.2h-20.16c-0.352 0-0.608-0.288-0.608-0.608v-13.408c0-0.352 0.288-0.608 0.608-0.608h20.16c0.352 0 0.608 0.288 0.608 0.608v13.408c0 0.352-0.256 0.608-0.608 0.608zM5.312 8.672l10.336 8.448c0.224 0.16 0.48 0.16 0.704 0l10.336-8.448"></path>
</symbol>
<symbol id="icon-facebook" viewBox="0 0 32 32">
<path fill="#fff" style="fill: var(--color1, #fff)" d="M32 16c0 8.837-7.163 16-16 16s-16-7.163-16-16c0-8.837 7.163-16 16-16s16 7.163 16 16z"></path>
<path fill="#8c2c93" style="fill: var(--color2, #8c2c93)" d="M12.704 27.936v-13.088h-2.176v-3.040h2.176v-0.704c0-2.080 0.576-4.16 1.952-5.504 1.184-1.12 2.816-1.568 4.192-1.568 1.088 0 1.952 0.16 2.624 0.384l-0.288 3.136c-0.416-0.16-0.992-0.288-1.728-0.288-2.016 0-2.72 1.696-2.72 3.68v0.832h3.552v3.040h-3.52v13.056h-4.064z"></path>
</symbol>
<symbol id="icon-home" viewBox="0 0 25 32">
<path fill="#e3e3e3" style="fill: var(--color3, #e3e3e3)" d="M23.857 14.658v17.343h-7.219v-5.37c0-1.981-1.717-3.565-3.829-3.565h-0.528c-2.113 0-3.829 1.585-3.829 3.565v5.37h-7.219v-17.343h22.624zM12.545 0l-12.501 13.293c-0.044 0.088 0 0.176 0.088 0.176h24.869c0.088 0 0.132-0.088 0.088-0.176l-12.545-13.293z"></path>
</symbol>
<symbol id="icon-instagram" viewBox="0 0 32 32">
<path fill="#fff" style="fill: var(--color1, #fff)" d="M32 16c0 8.837-7.163 16-16 16s-16-7.163-16-16c0-8.837 7.163-16 16-16s16 7.163 16 16z"></path>
<path fill="none" stroke="#8c2c93" style="stroke: var(--color2, #8c2c93)" stroke-linejoin="miter" stroke-linecap="butt" stroke-miterlimit="10" stroke-width="2.8154" d="M21.024 25.312h-10.048c-2.368 0-4.288-1.92-4.288-4.288v-10.048c0-2.368 1.92-4.288 4.288-4.288h10.048c2.368 0 4.288 1.92 4.288 4.288v10.048c0 2.368-1.92 4.288-4.288 4.288z"></path>
<path fill="#8c2c93" style="fill: var(--color2, #8c2c93)" d="M22.592 10.528c0 0.619-0.501 1.12-1.12 1.12s-1.12-0.501-1.12-1.12c0-0.619 0.501-1.12 1.12-1.12s1.12 0.501 1.12 1.12z"></path>
<path fill="none" stroke="#8c2c93" style="stroke: var(--color2, #8c2c93)" stroke-linejoin="miter" stroke-linecap="butt" stroke-miterlimit="10" stroke-width="2.4451" d="M20.16 16c0 2.297-1.863 4.16-4.16 4.16s-4.16-1.863-4.16-4.16c0-2.297 1.863-4.16 4.16-4.16s4.16 1.863 4.16 4.16z"></path>
</symbol>
<symbol id="icon-location" viewBox="0 0 21 32">
<path fill="#f9f9f9" style="fill: var(--color4, #f9f9f9)" d="M14.48 11.441c0 2.073-1.681 3.754-3.754 3.754s-3.754-1.681-3.754-3.754c0-2.073 1.681-3.754 3.754-3.754s3.754 1.681 3.754 3.754z"></path>
<path fill="none" stroke="#f9f9f9" style="stroke: var(--color4, #f9f9f9)" stroke-linejoin="miter" stroke-linecap="butt" stroke-miterlimit="10" stroke-width="2.5040" d="M20.201 10.696c-0.089 5.78-3.367 16.089-8.551 19.784-0.536 0.387-1.311 0.387-1.847 0-5.184-3.695-8.462-14.004-8.551-19.784-0.089-6.912 4.35-9.445 9.475-9.445s9.594 2.533 9.475 9.445z"></path>
</symbol>
<symbol id="icon-search" viewBox="0 0 32 32">
<path fill="#e3e3e3" style="fill: var(--color3, #e3e3e3)" d="M11.445 3.815c2.065 0 3.95 0.808 5.431 2.244 1.436 1.436 2.244 3.366 2.244 5.431s-0.808 3.95-2.244 5.431c-1.436 1.436-3.366 2.244-5.431 2.244s-3.95-0.808-5.431-2.244c-1.436-1.436-2.244-3.366-2.244-5.431s0.808-3.95 2.244-5.431c1.481-1.481 3.411-2.244 5.431-2.244zM11.445 0c-2.917 0-5.835 1.122-8.079 3.366-4.488 4.488-4.488 11.714 0 16.202 2.244 2.244 5.161 3.366 8.079 3.366s5.879-1.122 8.079-3.366c4.488-4.488 4.488-11.714 0-16.202-2.199-2.244-5.116-3.366-8.079-3.366zM31.82 29.217l-2.603 2.603c-0.269 0.269-0.718 0.269-0.987 0l-7.899-7.944c-0.763-0.763-0.763-2.020 0-2.828l0.718-0.718c0.763-0.763 2.065-0.763 2.828 0l7.944 7.944c0.269 0.269 0.269 0.673 0 0.942zM21.363 20.959l-0.404 0.404c-0.494 0.494-1.257 0.494-1.75 0l-0.404-0.404c-0.494-0.494-0.494-1.257 0-1.75l0.404-0.404c0.494-0.494 1.257-0.494 1.75 0l0.404 0.404c0.449 0.494 0.449 1.257 0 1.75z"></path>
</symbol>
<symbol id="icon-camera" viewBox="0 0 38 32">
<path fill="#4d5051" style="fill: var(--color5, #4d5051)" d="M15.938 3.748h5.901c0.331 0 0.6 0.269 0.6 0.6v1.644c0 0.331-0.269 0.6-0.6 0.6h-5.901c-0.331 0-0.6-0.269-0.6-0.6v-1.644c0-0.331 0.269-0.6 0.6-0.6z"></path>
<path fill="#4d5051" style="fill: var(--color5, #4d5051)" d="M14.795 0h8.184c0.465 0 0.843 0.377 0.843 0.843v2.359c0 0.465-0.377 0.843-0.843 0.843h-8.184c-0.465 0-0.843-0.377-0.843-0.843v-2.359c0-0.465 0.377-0.843 0.843-0.843z"></path>
<path fill="#fff" style="fill: var(--color1, #fff)" d="M16.464 0.824h4.847c0.276 0 0.499 0.224 0.499 0.499v1.397c0 0.276-0.224 0.499-0.499 0.499h-4.847c-0.276 0-0.499-0.224-0.499-0.499v-1.397c0-0.276 0.224-0.499 0.499-0.499z"></path>
<path fill="#000" style="fill: var(--color6, #000)" d="M10.689 16.516c1.127-3.518 4.369-6.020 8.195-6.020s7.068 2.502 8.178 5.959l0.017 0.061h10.689v-7.566c-0.006-1.612-1.309-2.918-2.919-2.929h-31.921c-1.616 0.006-2.924 1.314-2.929 2.93v7.565z"></path>
<path fill="#000" style="fill: var(--color6, #000)" d="M27.079 21.505c-1.125 3.52-4.368 6.024-8.195 6.024s-7.070-2.504-8.178-5.963l-0.017-0.061h-10.689v7.566c0.006 1.615 1.313 2.923 2.928 2.929h31.92c1.615-0.006 2.923-1.313 2.929-2.928v-7.567z"></path>
<path fill="#fff" style="fill: var(--color1, #fff)" opacity="0.92" d="M4.168 8.422h4.398c0.465 0 0.843 0.377 0.843 0.843v0.154c0 0.465-0.377 0.843-0.843 0.843h-4.398c-0.465 0-0.843-0.377-0.843-0.843v-0.154c0-0.465 0.377-0.843 0.843-0.843z"></path>
<path fill="#000" style="fill: var(--color6, #000)" opacity="0.92" d="M8.566 8.506c0.419 0 0.759 0.34 0.759 0.759v0 0.154c0 0.419-0.34 0.759-0.759 0.759v0h-4.398c-0.419 0-0.759-0.34-0.759-0.759v0-0.154c0-0.419 0.34-0.759 0.759-0.759v0h4.398zM8.566 8.338h-4.398c-0.511 0.002-0.925 0.416-0.926 0.926v0.154c0.002 0.511 0.416 0.925 0.926 0.927h4.398c0.511-0.002 0.925-0.416 0.927-0.926v-0.154c-0.002-0.511-0.416-0.925-0.926-0.927h-0z"></path>
<path fill="#706523" style="fill: var(--color7, #706523)" opacity="0.98" d="M30.134 15.363c-0.303-0.911-0.591-1.768-1.089-2.597-0.524-0.875-1.151-1.957-2.010-2.639-0.762-0.624-1.61-1.218-2.501-1.748l-0.096-0.053c-0.849-0.489-1.814-0.657-2.681-1.089h-1.005v-0.168h-3.183v0.168h-0.838c-1.035 0.387-2.079 0.7-3.016 1.257-1.148 0.676-2.138 1.453-3.014 2.344l-0.002 0.002c-0.821 0.821-1.215 1.69-1.759 2.597-0.229 0.407-0.428 0.88-0.574 1.375l-0.012 0.049c-0.137 0.409-0.208 0.826-0.335 1.257-0.503 1.709-0.28 3.53 0 5.277 0.032 0.204 0.268 0.469 0.335 0.67 0.079 0.235 0.065 0.447 0.168 0.67 0.196 0.427 0.451 0.838 0.67 1.257 0.531 1.028 1.173 1.911 1.929 2.683l-0.002-0.002c1.508 1.516 3.401 2.078 5.277 3.016h0.838v0.168h3.853v-0.168h0.838c2.218-0.838 4.524-1.871 6.031-3.77 2.268-2.865 3.401-6.888 2.178-10.555z"></path>
<path fill="#706523" style="fill: var(--color7, #706523)" opacity="0.98" d="M29.869 18.493c0 5.905-4.787 10.692-10.692 10.692s-10.692-4.787-10.692-10.692c0-5.905 4.787-10.692 10.692-10.692s10.692 4.787 10.692 10.692z"></path>
<path fill="none" opacity="0.98" stroke="#706523" style="stroke: var(--color7, #706523)" stroke-linejoin="miter" stroke-linecap="butt" stroke-miterlimit="10" stroke-width="0.4691" d="M29.869 18.493c0 5.905-4.787 10.692-10.692 10.692s-10.692-4.787-10.692-10.692c0-5.905 4.787-10.692 10.692-10.692s10.692 4.787 10.692 10.692z"></path>
<path fill="#fff" style="fill: var(--color1, #fff)" d="M29.869 18.493c0 5.905-4.787 10.692-10.692 10.692s-10.692-4.787-10.692-10.692c0-5.905 4.787-10.692 10.692-10.692s10.692 4.787 10.692 10.692z"></path>
<path fill="none" stroke="#161616" style="stroke: var(--color8, #161616)" stroke-linejoin="miter" stroke-linecap="butt" stroke-miterlimit="10" stroke-width="0.4691" d="M29.869 18.493c0 5.905-4.787 10.692-10.692 10.692s-10.692-4.787-10.692-10.692c0-5.905 4.787-10.692 10.692-10.692s10.692 4.787 10.692 10.692z"></path>
<path fill="#000" style="fill: var(--color6, #000)" d="M19.197 27.562c-5.016 0-9.082-4.066-9.082-9.082s4.066-9.082 9.082-9.082c5.016 0 9.082 4.066 9.082 9.082v0c-0.006 5.014-4.069 9.077-9.082 9.082h-0.001z"></path>
<path fill="#fff" style="fill: var(--color1, #fff)" d="M19.197 9.476c4.973 0 9.004 4.031 9.004 9.004s-4.031 9.004-9.004 9.004c-4.973 0-9.004-4.031-9.004-9.004v0c0.006-4.97 4.033-8.998 9.003-9.004h0.001zM19.197 9.32c-0 0-0.001 0-0.002 0-5.059 0-9.161 4.102-9.161 9.161s4.102 9.161 9.161 9.161c5.059 0 9.161-4.102 9.161-9.161 0-0.001 0-0.001 0-0.002v0c0-5.059-4.101-9.159-9.159-9.159v0z"></path>
<path fill="#267a5c" style="fill: var(--color9, #267a5c)" opacity="0.45" d="M29.835 18.496c0 5.876-4.763 10.639-10.639 10.639s-10.639-4.763-10.639-10.639c0-5.876 4.763-10.639 10.639-10.639s10.639 4.763 10.639 10.639z"></path>
<path fill="#fff" style="fill: var(--color1, #fff)" d="M26.337 20.47c0.445 0.445-0.342 1.953-1.757 3.368s-2.923 2.202-3.368 1.757c-0.445-0.445 0.342-1.953 1.757-3.368s2.923-2.202 3.368-1.757z"></path>
<path fill="#fff" style="fill: var(--color1, #fff)" opacity="0.29" d="M16.774 14.345c0 0.896-0.726 1.622-1.622 1.622s-1.622-0.726-1.622-1.622c0-0.896 0.726-1.622 1.622-1.622s1.622 0.726 1.622 1.622z"></path>
<path fill="#fff" style="fill: var(--color1, #fff)" opacity="0.29" d="M16.255 14.799c0 0.287-0.233 0.519-0.519 0.519s-0.519-0.233-0.519-0.519c0-0.287 0.233-0.519 0.519-0.519s0.519 0.233 0.519 0.519z"></path>
</symbol>
<symbol id="icon-copyright1" viewBox="0 0 32 32">
<path fill="#fff" style="fill: var(--color1, #fff)" d="M31.996 15.998c0 8.836-7.163 15.998-15.998 15.998s-15.998-7.163-15.998-15.998c0-8.836 7.163-15.998 15.998-15.998s15.998 7.163 15.998 15.998z"></path>
<path fill="#8c2c93" style="fill: var(--color2, #8c2c93)" d="M20.026 21.41c-0.982 0.401-2.122 0.634-3.315 0.634-0.062 0-0.123-0.001-0.185-0.002l0.009 0c-3.844 0-6.354-2.453-6.354-6.273 0.004-3.696 2.528-6.591 6.862-6.591 0.016-0 0.036-0 0.055-0 1.066 0 2.082 0.214 3.008 0.602l-0.051-0.019-0.558 2.33c-0.66-0.306-1.432-0.485-2.245-0.485-0.038 0-0.077 0-0.115 0.001l0.006-0c-2.376 0-3.795 1.765-3.767 4 0 2.528 1.641 3.971 3.767 3.971 0.031 0.001 0.067 0.001 0.103 0.001 0.855 0 1.669-0.177 2.408-0.496l-0.039 0.015zM15.998 28.339c-6.824 0-12.355-5.532-12.355-12.355s5.532-12.355 12.355-12.355c6.824 0 12.355 5.532 12.355 12.355v0c0 6.824-5.532 12.355-12.355 12.355v0zM15.998 6.679c-5.149 0-9.323 4.174-9.323 9.323s4.174 9.323 9.323 9.323c5.149 0 9.323-4.174 9.323-9.323 0-0.001 0-0.002 0-0.004v0c-0.006-5.146-4.177-9.315-9.322-9.319h-0z"></path>
</symbol>
<symbol id="icon-email1" viewBox="0 0 32 32">
<path fill="#fff" style="fill: var(--color1, #fff)" d="M32 16c0 8.837-7.163 16-16 16s-16-7.163-16-16c0-8.837 7.163-16 16-16s16 7.163 16 16z"></path>
<path fill="#8c2c93" style="fill: var(--color2, #8c2c93)" d="M26.080 24.506h-20.16c-1.060 0-1.92-0.86-1.92-1.92v0-13.408c0-1.060 0.86-1.92 1.92-1.92v0h20.16c1.060 0 1.92 0.86 1.92 1.92v0 13.418c-0.005 1.056-0.863 1.91-1.92 1.91 0 0-0 0-0 0v0zM6.605 21.914h18.79v-12.051h-18.79zM16 18.528c-0.445-0.001-0.854-0.16-1.171-0.425l0.003 0.002-10.352-8.442 1.642-2.010 9.878 8.058 9.872-8.058 1.648 2.010-10.352 8.442c-0.314 0.262-0.723 0.422-1.168 0.422h-0z"></path>
</symbol>
<symbol id="icon-facebook1" viewBox="0 0 32 32">
<path fill="#fff" style="fill: var(--color1, #fff)" d="M32 16c0 8.837-7.163 16-16 16s-16-7.163-16-16c0-8.837 7.163-16 16-16s16 7.163 16 16z"></path>
<path fill="#8c2c93" style="fill: var(--color2, #8c2c93)" d="M12.707 27.926v-13.069h-2.182v-3.043h2.182v-0.694c0-2.083 0.563-4.16 1.952-5.491 1.082-0.966 2.516-1.556 4.089-1.556 0.040 0 0.079 0 0.118 0.001l-0.006-0c0.036-0.001 0.078-0.001 0.12-0.001 0.892 0 1.75 0.149 2.549 0.424l-0.055-0.016-0.298 3.142c-0.49-0.189-1.056-0.298-1.649-0.298-0.026 0-0.051 0-0.077 0.001l0.004-0c-2.016 0-2.71 1.686-2.71 3.674v0.826h3.539v3.043h-3.52v13.059z"></path>
</symbol>
<symbol id="icon-home1" viewBox="0 0 25 32">
<path fill="#e3e3e3" style="fill: var(--color3, #e3e3e3)" d="M23.853 13.456v18.544h-7.232v-5.722c0-0.004 0-0.009 0-0.013 0-2.108-1.709-3.816-3.816-3.816 0 0 0 0-0 0h-0.519c-2.108 0-3.816 1.709-3.816 3.816v0 5.722h-7.228v-18.531zM12.549 0l-12.523 13.28c-0.017 0.019-0.027 0.043-0.027 0.070 0 0.058 0.047 0.106 0.106 0.106 0 0 0 0 0.001 0h24.883c0 0 0 0 0 0 0.058 0 0.106-0.047 0.106-0.106 0-0.027-0.010-0.052-0.027-0.071l0 0z"></path>
</symbol>
<symbol id="icon-instagram1" viewBox="0 0 32 32">
<path fill="#fff" style="fill: var(--color1, #fff)" d="M32 16c0 8.837-7.163 16-16 16s-16-7.163-16-16c0-8.837 7.163-16 16-16s16 7.163 16 16z"></path>
<path fill="#8c2c93" style="fill: var(--color2, #8c2c93)" d="M21.024 26.723h-10.048c-3.145-0.004-5.694-2.553-5.696-5.699v-10.048c0.002-3.146 2.551-5.696 5.696-5.699h10.048c3.145 0.004 5.694 2.553 5.696 5.699v10.048c-0.002 3.146-2.551 5.696-5.696 5.699h-0zM10.976 8.093c-1.591 0-2.88 1.289-2.88 2.88v0 10.051c0 1.591 1.289 2.88 2.88 2.88v0h10.048c1.591 0 2.88-1.289 2.88-2.88v0-10.048c0-1.591-1.289-2.88-2.88-2.88v0z"></path>
<path fill="#8c2c93" style="fill: var(--color2, #8c2c93)" d="M22.579 10.512c0 0.611-0.496 1.107-1.107 1.107s-1.107-0.496-1.107-1.107c0-0.611 0.496-1.107 1.107-1.107s1.107 0.496 1.107 1.107z"></path>
<path fill="#8c2c93" style="fill: var(--color2, #8c2c93)" d="M16 21.389c-2.976 0-5.389-2.413-5.389-5.389s2.413-5.389 5.389-5.389c2.976 0 5.389 2.413 5.389 5.389v0c-0.002 2.975-2.413 5.387-5.389 5.389h-0zM16 13.069c-1.626 0-2.944 1.318-2.944 2.944s1.318 2.944 2.944 2.944c1.626 0 2.944-1.318 2.944-2.944 0-0.005 0-0.009-0-0.014v0.001c-0.002-1.625-1.319-2.942-2.944-2.944h-0z"></path>
</symbol>
<symbol id="icon-location1" viewBox="0 0 21 32">
<path fill="#f9f9f9" style="fill: var(--color4, #f9f9f9)" d="M14.482 11.432c0 2.071-1.679 3.75-3.75 3.75s-3.75-1.679-3.75-3.75c0-2.071 1.679-3.75 3.75-3.75s3.75 1.679 3.75 3.75z"></path>
<path fill="#f9f9f9" style="fill: var(--color4, #f9f9f9)" d="M10.723 32c-0.002 0-0.004 0-0.007 0-0.613 0-1.181-0.193-1.647-0.521l0.009 0.006c-5.698-4.051-8.987-14.852-9.079-20.761-0.048-3.318 0.858-5.957 2.696-7.813s4.656-2.91 8.028-2.91 6.166 1.007 8.042 2.91 2.743 4.495 2.681 7.813c-0.077 5.91-3.366 16.71-9.070 20.761-0.457 0.322-1.025 0.515-1.638 0.515-0.005 0-0.011 0-0.016-0h0.001zM10.723 2.511c-1.871-0.009-4.468 0.369-6.255 2.157-1.349 1.373-2.017 3.393-1.975 6.011 0.083 5.385 3.253 15.373 8.042 18.766 0.056 0.034 0.123 0.055 0.195 0.055s0.14-0.020 0.197-0.056l-0.002 0.001c4.766-3.39 7.947-13.377 8.042-18.766 0.042-2.618-0.626-4.638-1.975-6.011-1.772-1.787-4.385-2.166-6.27-2.166z"></path>
</symbol>

<symbol id="icon-search1" viewBox="0 0 32 32">
<path fill="#e3e3e3" style="fill: var(--color3, #e3e3e3)" d="M11.452 3.799c0.009-0 0.020-0 0.031-0 4.211 0 7.625 3.414 7.625 7.625 0 2.126-0.87 4.048-2.273 5.431l-0.001 0.001c-1.382 1.379-3.289 2.232-5.396 2.232-4.219 0-7.639-3.42-7.639-7.639 0-2.112 0.857-4.024 2.243-5.407l0-0c1.377-1.385 3.283-2.243 5.39-2.243 0.007 0 0.014 0 0.020 0h-0.001zM11.452 0c-0.007-0-0.016-0-0.025-0-6.325 0-11.452 5.127-11.452 11.452s5.127 11.452 11.452 11.452c6.325 0 11.452-5.127 11.452-11.452 0-3.162-1.281-6.024-3.353-8.096l0 0c-2.064-2.072-4.919-3.355-8.074-3.355h-0zM31.798 29.21l-2.588 2.588c-0.124 0.125-0.295 0.202-0.484 0.202s-0.361-0.077-0.484-0.202l-7.935-7.935c-0.359-0.36-0.581-0.857-0.581-1.406s0.222-1.046 0.581-1.406l0.74-0.74c0.361-0.362 0.861-0.586 1.413-0.586s1.052 0.224 1.413 0.586l7.926 7.948c0.119 0.123 0.193 0.29 0.193 0.475s-0.074 0.353-0.193 0.476l0-0z"></path>
<path fill="#e3e3e3" style="fill: var(--color3, #e3e3e3)" d="M18.794 19.189l0.39-0.39c0.483-0.483 1.267-0.483 1.751 0l0.39 0.39c0.483 0.483 0.483 1.267 0 1.751l-0.39 0.39c-0.483 0.483-1.267 0.483-1.751 0l-0.39-0.39c-0.483-0.483-0.483-1.267 0-1.751z"></path>
</symbol>
<symbol id="icon-woman" viewBox="0 0 30 32">
<path fill="#49008f" style="fill: var(--color10, #49008f)" d="M28.905 5.012c1.234-1.163 1.203-1.679 1.115-1.9-0.309-0.794-2.425-0.63-2.729-0.601-2.269 0.199-3.798 1.367-5.406 2.502-1.855 1.308-4.456 3.14-6.456 4.033-1.778 0.797-4.456 1.464-8.359 0.817-0.124-0.021-0.267-0.032-0.413-0.032-0.257 0-0.505 0.037-0.74 0.105l0.019-0.005c-1.313 0.363-2.461 0.917-3.48 1.64l0.034-0.023c-0.939 0.65-1.546 1.2-1.447 1.682 0.147 0.718 1.812 0.933 2.408 1.013 7.091 0.928 20.992-5.029 25.454-9.23zM10.852 0.567c1.827-0.828 3.582-0.567 4.782-0.357 1.702 0.284 3.319 0.922 4.354 1.654 3.347 3.319-5.522 6.887-7.695 6.946-0.182 0-0.366 0.014-0.55 0.034-0.389 0.043-4.853 0.156-5.724-1.685-0.891-1.886 2.283-5.222 4.402-6.376 0.218-0.122 0.408-0.216 0.431-0.216z"></path>
<path fill="#c76c4f" style="fill: var(--color11, #c76c4f)" d="M21.185 11.243c-1.664 1.155-3.565 2.191-5.575 3.016l-0.2 0.073c-0.813 0.308-1.512 0.737-2.114 1.274l0.007-0.006c-0.745 0.674-1.339 1.5-1.736 2.431l-0.017 0.045q-0.939 2.062-1.946 4.189c-0.303 0.644-0.61 1.279-0.916 1.915-0.118 0.27-0.186 0.585-0.186 0.916s0.068 0.646 0.192 0.931l-0.006-0.015 0.051 0.091c0.23 0.374 0.528 0.59 1.177 0.956 0.4 0.224 0.601 0.338 0.871 0.465 0.354 0.179 0.775 0.348 1.211 0.483l0.060 0.016c0.424 0.117 0.923 0.205 1.435 0.245l0.028 0.002c0.425 0.043 0.746 0.057 2.082 0.077 1.702 0.023 2.269 0 2.939-0.284 0.177-0.070 0.33-0.159 0.466-0.269l-0.003 0.003c0.692-0.567 0.865-1.753 0.491-2.536-0.224-0.465-0.494-0.482-1.418-1.16-1.308-0.953-2.17-1.583-2.141-2.306 0.037-0.933 1.54-1.603 1.798-1.719 0.381-0.166 0.823-0.286 1.286-0.338l0.021-0.002c1.461-0.21 2.028 0.224 2.851-0.233 0.296-0.182 0.542-0.417 0.729-0.695l0.005-0.008c0.306-0.406 0.355-0.675 0.672-1.449 0.194-0.546 0.416-1.014 0.678-1.455l-0.020 0.037c0.55-0.783 1.072-0.885 1.066-1.39-0.022-0.296-0.125-0.564-0.287-0.787l0.003 0.004c-0.148-0.182-0.244-0.196-0.369-0.408-0.086-0.129-0.145-0.283-0.164-0.449l-0-0.005c-0.057-0.425 0-0.553-0.028-0.754-0.077-0.519-0.627-0.851-0.786-0.933-0.285-0.159-0.626-0.253-0.989-0.253-0.102 0-0.203 0.007-0.301 0.022l0.011-0.001c-0.343 0.029-0.658 0.124-0.941 0.273l0.013-0.006z"></path>
<path fill="#214500" style="fill: var(--color12, #214500)" d="M0.851 31.858l24.393 0.142c0.223-0.014 0.418-0.121 0.549-0.282l0.001-0.001c0.075-0.152 0.119-0.332 0.119-0.521 0-0.065-0.005-0.129-0.015-0.192l0.001 0.007c-0.001-0.245-0.021-0.485-0.057-0.719l0.003 0.027c-0.125-0.678-0.831-1.418-1.441-2.054-1.418-1.498-1.662-1.753-2.201-1.866-0.138-0.040-0.296-0.063-0.459-0.063-0.244 0-0.476 0.051-0.686 0.144l0.011-0.004c-0.703 0.346-0.604 1.095-1.075 1.79-0.806 1.191-2.646 1.296-5.057 1.435-0.254 0.028-0.549 0.043-0.847 0.043-0.502 0-0.995-0.045-1.472-0.13l0.050 0.007c-1.073-0.235-2.022-0.634-2.872-1.176l0.036 0.021c-0.638-0.366-1.187-0.747-1.701-1.169l0.022 0.017c-0.35-0.368-0.822-0.616-1.351-0.68l-0.011-0.001c-0.825-0.060-1.154 0.525-2.751 1.361-0.61 0.334-1.353 0.677-2.119 0.975l-0.136 0.047c-0.882 0.318-1.418 0.414-1.676 0.919-0.089 0.181-0.142 0.393-0.142 0.618 0 0.203 0.043 0.396 0.12 0.571l-0.004-0.009c0.158 0.335 0.427 0.596 0.759 0.739l0.010 0.004z"></path>
</symbol>
</defs>
</svg>
