<svg
  xmlns="http://www.w3.org/2000/svg" viewBox="0 0 50.8 62.8">
  <defs>
    <style>.cls-1{fill:#fffff}</style>
  </defs>
  <title>icopen tool</title>
  <g id="Layer_2" data-name="Layer 2">
    <g id="Layer_1-2" data-name="Layer 1">
      <g id="pen_tool" data-name="pen tool">
        <path class="cls-1" d="M40.55 62.8h-30.3C4.6 62.8 0 57.93 0 52V10.85C0 4.87 4.6 0 10.25 0h30.3C46.2 0 50.8 4.87 50.8 10.85V52c0 5.93-4.6 10.8-10.25 10.8zM10.25 5.61a5.11 5.11 0 00-4.95 5.24V52a5.11 5.11 0 005 5.24h30.3a5.11 5.11 0 005-5.24V10.85a5.11 5.11 0 00-5-5.24z"/>
        <g class="pen-tool-fill" id="pen-tool-fill">
          <path class="cls-1" d="M22.81 20c-.1.32-.22.63-.3.95-.12.49-.24 1-.32 1.49a13.08 13.08 0 00-.19 2.29 13.61 13.61 0 00.56 3.92c.11.37.29.71.43 1.07a.79.79 0 010 .09l-.48.37-.01-.18-1.23-1.82L20 26.3c-.49-.72-1-1.44-1.46-2.15a2.33 2.33 0 01-.4-1.67 1.48 1.48 0 00-.53-1.43 1.31 1.31 0 00-1.45-.17 1.41 1.41 0 00-.82 1.22 1.44 1.44 0 00.63 1.38 1.53 1.53 0 00.59.24 2 2 0 011.21.78c1 1.4 1.9 2.81 2.85 4.21l1.24 1.82.1.14-.49.37a5.87 5.87 0 00-1.1-1 12.44 12.44 0 00-2.41-1.36 14.38 14.38 0 00-2.43-.79 8.66 8.66 0 00-2.73-.22h-.1c0-.22-.09-.44-.13-.66-.29-1.64-.59-3.27-.89-4.9-.18-1-.36-2-.55-3a.26.26 0 01.11-.29l4.17-3.17a.19.19 0 01.25 0l3.44 2.07 3.52 2.12zM9.75 17.39l4.83-3.67a.43.43 0 01.63.1l.21.32a.48.48 0 01-.1.66l-4.84 3.67a.42.42 0 01-.62-.11l-.21-.31a.48.48 0 01.1-.66zM8.81 16l4.83-3.67a.44.44 0 01.63.11l.21.31a.48.48 0 01-.1.66l-4.84 3.68a.43.43 0 01-.62-.09l-.21-.31a.5.5 0 01.1-.69zM7.87 14.62l4.83-3.68a.44.44 0 01.63.11l.21.32a.48.48 0 01-.1.66L8.6 15.7a.42.42 0 01-.6-.11l-.21-.31a.48.48 0 01.08-.66z"/>
        </g>
        <path class="cls-1" d="M23.5 31.9h18.96v2.01H23.5zM11.18 37.92h31.28v2.01H11.18zM11.18 43.94h31.28v2.01H11.18z"/>
      </g>
    </g>
  </g>
</svg>