<svg xmlns="http://www.w3.org/2000/svg" viewBox="0 0 100 100"><defs><style>.cls-2{fill:#8c2c93}</style></defs><title>icoInstagram</title><g id="Layer_2" data-name="Layer 2"><g id="Layer_1-2" data-name="Layer 1"><g id="Instagram"><circle id="background-instagram" cx="50" cy="50" r="50" fill="#fff"/><g id="fill-instagram"><path class="cls-2" d="M65.7 82.11H34.3A16.43 16.43 0 0117.89 65.7V34.3A16.43 16.43 0 0134.3 17.89h31.4A16.43 16.43 0 0182.11 34.3v31.4A16.43 16.43 0 0165.7 82.11zM34.3 23.89A10.42 10.42 0 0023.89 34.3v31.4A10.42 10.42 0 0034.3 76.11h31.4A10.42 10.42 0 0076.11 65.7V34.3A10.42 10.42 0 0065.7 23.89z"/><circle class="cls-2" cx="67.09" cy="31.95" r="2.68"/><path class="cls-2" d="M50 66a16 16 0 1116-16 16 16 0 01-16 16zm0-26a10 10 0 1010 10 10 10 0 00-10-10z"/></g></g></g></g></svg>