<svg xmlns="http://www.w3.org/2000/svg" viewBox="0 0 42.35 62.79"><defs><style>.cls-1{fill:#e3e3e3}</style></defs><title>icoAsset 6</title><g id="Layer_2" data-name="Layer 2"><g id="Layer_1-2" data-name="Layer 1"><ellipse class="cls-1" cx="21.18" cy="23.08" rx="8.73" ry="8.95"/><path class="cls-1" d="M21.18 62.79a5.31 5.31 0 01-3-.93C6.75 53.89.19 32.59 0 20.91c-.1-6.35 1.62-11.4 5.1-15C8.79 2 14.35 0 21.18 0s12.38 2 16.07 5.88c3.48 3.63 5.2 8.68 5.1 15-.18 11.68-6.75 33-18.15 41a5.3 5.3 0 01-3.02.91zm0-58.53c-4 0-9.46.8-13.11 4.61-2.67 2.78-4 6.81-3.91 12 .18 11 6.47 30.6 16.33 37.5a1.3 1.3 0 001.37 0c9.86-6.9 16.16-26.49 16.33-37.5.08-5.16-1.23-9.19-3.9-12-3.66-3.81-9.15-4.61-13.11-4.61z"/></g></g></svg>