<svg xmlns="http://www.w3.org/2000/svg" viewBox="0 0 50.48 62"><defs><style>.cls-2{fill:#fff}.cls-3{fill:#e3e3e3}</style></defs><title>icoMountain</title><g id="Layer_2" data-name="Layer 2"><g id="Layer_1-2" data-name="Layer 1"><g id="Mountain"><path d="M44.57 31.93v.13h.09z" fill="#bfbfbf"/><g id="mountains-top"><path class="cls-2" d="M20.11 39.42a3 3 0 01-.43.32c-.82.89-2-.45-2.86-.89-1.25-.54-2.65.41-4 .73l3.7-7zM44.66 32.09h-.09c-1.55-.53-3.35-1.65-4.47-1.65-4.43 0-8.46 6.9-12.87 2.85l9-17 8.32 15.68z"/></g><g id="mountain-around"><path class="cls-3" d="M44.67 0H5.81A6.12 6.12 0 000 6.39v49.22A6.12 6.12 0 005.81 62h38.86a6.12 6.12 0 005.81-6.39V6.39A6.12 6.12 0 0044.67 0zm-.1 32.06c-1.55-.53-3.35-1.65-4.47-1.65-4.43 0-8.46 6.9-12.87 2.85l-5.07 9.55-.13.24-1.92-3.63a3 3 0 01-.43.32c-.82.89-2-.45-2.86-.89-1.25-.54-2.65.41-4 .73L6.4 51.65a6.7 6.7 0 01-.49-2.55V12.9a6.12 6.12 0 015.82-6.39h27a6.12 6.12 0 015.81 6.39v19l.09.16z"/><circle class="cls-3" cx="16.44" cy="16.02" r="5.56"/></g></g></g></g></svg>