<svg xmlns="http://www.w3.org/2000/svg" viewBox="0 0 78.64 78.64"><title>icosearch-round</title><g id="Layer_2" data-name="Layer 2"><g id="Layer_1-2" data-name="Layer 1"><g id="search-round"><circle id="background" cx="39.32" cy="39.32" r="39.32" fill="#e3e3e3"/><path id="search-fill" d="M51 14.86A25.52 25.52 0 1048.63 53a2.84 2.84 0 00.65 1.05l.88.87a2.74 2.74 0 00.75.54 4 4 0 001.17 2.46l8.34 8.34a.6.6 0 00.86 0l5-5a.62.62 0 000-.87L58 52.14A4.08 4.08 0 0055.49 51a2.49 2.49 0 00-.55-.8l-.88-.87a2.5 2.5 0 00-1-.65A25.52 25.52 0 0051 14.86zm-1 18a17.05 17.05 0 11-5-12.06 16.93 16.93 0 015 12.1z" fill="#8c2c93"/></g></g></g></svg>